M48
; DRILL file KiCad 10.0.3 date 2026-06-03T20:05:35
; FORMAT={-:-/ absolute / metric / decimal}
; #@! TF.CreationDate,2026-06-03T20:05:35+02:00
; #@! TF.GenerationSoftware,Kicad,Pcbnew,10.0.3
; #@! TF.FileFunction,NonPlated,1,2,NPTH
FMAT,2
METRIC
; #@! TA.AperFunction,NonPlated,NPTH,ComponentDrill
T1C1.700
; #@! TA.AperFunction,NonPlated,NPTH,ComponentDrill
T2C2.200
; #@! TA.AperFunction,NonPlated,NPTH,ComponentDrill
T3C4.000
%
G90
G05
T1
X-26.67Y4.445
X-26.67Y-14.605
X-16.51Y4.445
X-16.51Y-14.605
X-7.62Y4.445
X-7.62Y-14.605
X2.54Y4.445
X2.54Y-14.605
X11.43Y4.445
X11.43Y-14.605
X21.59Y4.445
X21.59Y-14.605
T2
X-31.0Y31.0
X-31.0Y-31.0
X31.0Y31.0
X31.0Y-31.0
T3
X-21.59Y4.445
X-21.59Y-14.605
X-2.54Y4.445
X-2.54Y-14.605
X16.51Y4.445
X16.51Y-14.605
M30
