%TF.GenerationSoftware,KiCad,Pcbnew,10.0.3*%
%TF.CreationDate,2026-06-03T20:05:35+02:00*%
%TF.ProjectId,hexpad,68657870-6164-42e6-9b69-6361645f7063,rev?*%
%TF.SameCoordinates,Original*%
%TF.FileFunction,Copper,L2,Bot*%
%TF.FilePolarity,Positive*%
%FSLAX46Y46*%
G04 Gerber Fmt 4.6, Leading zero omitted, Abs format (unit mm)*
G04 Created by KiCad (PCBNEW 10.0.3) date 2026-06-03 20:05:35*
%MOMM*%
%LPD*%
G01*
G04 APERTURE LIST*
%TA.AperFunction,ComponentPad*%
%ADD10C,2.200000*%
%TD*%
%TA.AperFunction,ComponentPad*%
%ADD11R,2.000000X2.000000*%
%TD*%
%TA.AperFunction,ComponentPad*%
%ADD12C,2.000000*%
%TD*%
%TA.AperFunction,ComponentPad*%
%ADD13R,3.200000X2.000000*%
%TD*%
%TA.AperFunction,ComponentPad*%
%ADD14C,1.524000*%
%TD*%
G04 APERTURE END LIST*
D10*
%TO.P,SW2,1*%
%TO.N,SW2*%
X0Y-9525000D03*
%TO.P,SW2,2*%
%TO.N,GND*%
X-6350000Y-12065000D03*
%TD*%
%TO.P,SW3,1*%
%TO.N,SW3*%
X19050000Y-9525000D03*
%TO.P,SW3,2*%
%TO.N,GND*%
X12700000Y-12065000D03*
%TD*%
D11*
%TO.P,ENC1,A*%
%TO.N,ENCA*%
X0Y26000000D03*
D12*
%TO.P,ENC1,B*%
%TO.N,ENCB*%
X0Y21000000D03*
%TO.P,ENC1,C*%
%TO.N,GND*%
X0Y23500000D03*
D13*
%TO.P,ENC1,MP*%
X7500000Y29100000D03*
%TO.N,N/C*%
X7500000Y17900000D03*
D12*
%TO.P,ENC1,S1*%
%TO.N,ENCSW*%
X14500000Y21000000D03*
%TO.P,ENC1,S2*%
%TO.N,GND*%
X14500000Y26000000D03*
%TD*%
D10*
%TO.P,SW4,1*%
%TO.N,SW4*%
X-19050000Y9525000D03*
%TO.P,SW4,2*%
%TO.N,GND*%
X-25400000Y6985000D03*
%TD*%
%TO.P,SW1,1*%
%TO.N,SW1*%
X-19050000Y-9525000D03*
%TO.P,SW1,2*%
%TO.N,GND*%
X-25400000Y-12065000D03*
%TD*%
%TO.P,SW5,1*%
%TO.N,SW5*%
X0Y9525000D03*
%TO.P,SW5,2*%
%TO.N,GND*%
X-6350000Y6985000D03*
%TD*%
%TO.P,SW6,1*%
%TO.N,SW6*%
X19050000Y9525000D03*
%TO.P,SW6,2*%
%TO.N,GND*%
X12700000Y6985000D03*
%TD*%
D14*
%TO.P,U1,1*%
%TO.N,SW1*%
X-2380000Y-19380000D03*
%TO.P,U1,2*%
%TO.N,SW2*%
X-2380000Y-21920000D03*
%TO.P,U1,3*%
%TO.N,SW3*%
X-2380000Y-24460000D03*
%TO.P,U1,4*%
%TO.N,SW4*%
X-2380000Y-27000000D03*
%TO.P,U1,5*%
%TO.N,N/C*%
X-2380000Y-29540000D03*
%TO.P,U1,6*%
X-2380000Y-32080000D03*
%TO.P,U1,7*%
%TO.N,SW5*%
X-2380000Y-34620000D03*
%TO.P,U1,8*%
%TO.N,SW6*%
X-17620000Y-34620000D03*
%TO.P,U1,9*%
%TO.N,ENCA*%
X-17620000Y-32080000D03*
%TO.P,U1,10*%
%TO.N,ENCB*%
X-17620000Y-29540000D03*
%TO.P,U1,11*%
%TO.N,ENCSW*%
X-17620000Y-27000000D03*
%TO.P,U1,12*%
%TO.N,N/C*%
X-17620000Y-24460000D03*
%TO.P,U1,13*%
%TO.N,GND*%
X-17620000Y-21920000D03*
%TO.P,U1,14*%
%TO.N,N/C*%
X-17620000Y-19380000D03*
%TD*%
%TA.AperFunction,Conductor*%
%TO.N,GND*%
G36*
X34442539Y36479815D02*
G01*
X34488294Y36427011D01*
X34499500Y36375500D01*
X34499500Y33934108D01*
X34533608Y33806812D01*
X34599500Y33692686D01*
X34599502Y33692683D01*
X34692683Y33599502D01*
X34692686Y33599500D01*
X34806812Y33533608D01*
X34934108Y33499500D01*
X37375500Y33499500D01*
X37442539Y33479815D01*
X37488294Y33427011D01*
X37499500Y33375500D01*
X37499500Y-33375500D01*
X37479815Y-33442539D01*
X37427011Y-33488294D01*
X37375500Y-33499500D01*
X34934108Y-33499500D01*
X34806812Y-33533608D01*
X34692686Y-33599500D01*
X34692683Y-33599502D01*
X34599502Y-33692683D01*
X34599500Y-33692686D01*
X34533608Y-33806812D01*
X34499500Y-33934108D01*
X34499500Y-36375500D01*
X34479815Y-36442539D01*
X34427011Y-36488294D01*
X34375500Y-36499500D01*
X-34375500Y-36499500D01*
X-34442539Y-36479815D01*
X-34488294Y-36427011D01*
X-34499500Y-36375500D01*
X-34499500Y-34525202D01*
X-18582500Y-34525202D01*
X-18582500Y-34714798D01*
X-18545512Y-34900751D01*
X-18472956Y-35075915D01*
X-18367622Y-35233558D01*
X-18233558Y-35367622D01*
X-18075915Y-35472956D01*
X-17900751Y-35545512D01*
X-17714800Y-35582499D01*
X-17714799Y-35582500D01*
X-17714798Y-35582500D01*
X-17525201Y-35582500D01*
X-17525197Y-35582499D01*
X-17339249Y-35545512D01*
X-17164085Y-35472956D01*
X-17111300Y-35437686D01*
X-17006441Y-35367622D01*
X-16872377Y-35233558D01*
X-16767042Y-35075912D01*
X-16694488Y-34900751D01*
X-16694486Y-34900743D01*
X-16657500Y-34714802D01*
X-16657500Y-34525202D01*
X-3342500Y-34525202D01*
X-3342500Y-34714798D01*
X-3305512Y-34900751D01*
X-3232956Y-35075915D01*
X-3127622Y-35233558D01*
X-2993558Y-35367622D01*
X-2835915Y-35472956D01*
X-2660751Y-35545512D01*
X-2474800Y-35582499D01*
X-2474799Y-35582500D01*
X-2474798Y-35582500D01*
X-2285201Y-35582500D01*
X-2285197Y-35582499D01*
X-2099249Y-35545512D01*
X-1924085Y-35472956D01*
X-1871300Y-35437686D01*
X-1766441Y-35367622D01*
X-1632377Y-35233558D01*
X-1527042Y-35075912D01*
X-1454488Y-34900751D01*
X-1454486Y-34900743D01*
X-1417500Y-34714802D01*
X-1417500Y-34525197D01*
X-1454486Y-34339256D01*
X-1454488Y-34339248D01*
X-1527042Y-34164087D01*
X-1632377Y-34006441D01*
X-1766441Y-33872377D01*
X-1924087Y-33767042D01*
X-2099248Y-33694488D01*
X-2099256Y-33694486D01*
X-2285197Y-33657500D01*
X-2285202Y-33657500D01*
X-2474798Y-33657500D01*
X-2474802Y-33657500D01*
X-2660743Y-33694486D01*
X-2660751Y-33694488D01*
X-2835912Y-33767042D01*
X-2993558Y-33872377D01*
X-3127622Y-34006441D01*
X-3197686Y-34111300D01*
X-3232956Y-34164085D01*
X-3305512Y-34339249D01*
X-3342500Y-34525202D01*
X-16657500Y-34525202D01*
X-16657500Y-34525197D01*
X-16694486Y-34339256D01*
X-16694488Y-34339248D01*
X-16767042Y-34164087D01*
X-16872377Y-34006441D01*
X-17006441Y-33872377D01*
X-17164087Y-33767042D01*
X-17339248Y-33694488D01*
X-17339256Y-33694486D01*
X-17525197Y-33657500D01*
X-17525202Y-33657500D01*
X-17714798Y-33657500D01*
X-17714802Y-33657500D01*
X-17900743Y-33694486D01*
X-17900751Y-33694488D01*
X-18075912Y-33767042D01*
X-18233558Y-33872377D01*
X-18367622Y-34006441D01*
X-18437686Y-34111300D01*
X-18472956Y-34164085D01*
X-18545512Y-34339249D01*
X-18582500Y-34525202D01*
X-34499500Y-34525202D01*
X-34499500Y-33934108D01*
X-34533608Y-33806812D01*
X-34599500Y-33692686D01*
X-34599502Y-33692683D01*
X-34692683Y-33599502D01*
X-34692686Y-33599500D01*
X-34806812Y-33533608D01*
X-34934108Y-33499500D01*
X-37375500Y-33499500D01*
X-37442539Y-33479815D01*
X-37488294Y-33427011D01*
X-37499500Y-33375500D01*
X-37499500Y-30893713D01*
X-32350500Y-30893713D01*
X-32350500Y-31106287D01*
X-32317246Y-31316243D01*
X-32251557Y-31518412D01*
X-32155051Y-31707816D01*
X-32155048Y-31707820D01*
X-32030109Y-31879786D01*
X-32030106Y-31879788D01*
X-32030104Y-31879792D01*
X-31879792Y-32030104D01*
X-31879788Y-32030106D01*
X-31879786Y-32030109D01*
X-31729789Y-32139086D01*
X-31707816Y-32155051D01*
X-31518412Y-32251557D01*
X-31316243Y-32317246D01*
X-31106287Y-32350500D01*
X-31106286Y-32350500D01*
X-30893714Y-32350500D01*
X-30893713Y-32350500D01*
X-30683757Y-32317246D01*
X-30481588Y-32251557D01*
X-30292184Y-32155051D01*
X-30292181Y-32155049D01*
X-30292179Y-32155048D01*
X-30120213Y-32030109D01*
X-30075306Y-31985202D01*
X-18582500Y-31985202D01*
X-18582500Y-32174798D01*
X-18545512Y-32360751D01*
X-18472956Y-32535915D01*
X-18367622Y-32693558D01*
X-18233558Y-32827622D01*
X-18075915Y-32932956D01*
X-17900751Y-33005512D01*
X-17714800Y-33042499D01*
X-17714799Y-33042500D01*
X-17714798Y-33042500D01*
X-17525201Y-33042500D01*
X-17525197Y-33042499D01*
X-17339249Y-33005512D01*
X-17164085Y-32932956D01*
X-17111300Y-32897686D01*
X-17006441Y-32827622D01*
X-16872377Y-32693558D01*
X-16767042Y-32535912D01*
X-16694488Y-32360751D01*
X-16694486Y-32360743D01*
X-16657500Y-32174802D01*
X-16657500Y-31985202D01*
X-3342500Y-31985202D01*
X-3342500Y-32174798D01*
X-3305512Y-32360751D01*
X-3232956Y-32535915D01*
X-3127622Y-32693558D01*
X-2993558Y-32827622D01*
X-2835915Y-32932956D01*
X-2660751Y-33005512D01*
X-2474800Y-33042499D01*
X-2474799Y-33042500D01*
X-2474798Y-33042500D01*
X-2285201Y-33042500D01*
X-2285197Y-33042499D01*
X-2099249Y-33005512D01*
X-1924085Y-32932956D01*
X-1871300Y-32897686D01*
X-1766441Y-32827622D01*
X-1632377Y-32693558D01*
X-1527042Y-32535912D01*
X-1454488Y-32360751D01*
X-1454486Y-32360743D01*
X-1417500Y-32174802D01*
X-1417500Y-31985197D01*
X-1454486Y-31799256D01*
X-1454488Y-31799248D01*
X-1527042Y-31624087D01*
X-1632377Y-31466441D01*
X-1766441Y-31332377D01*
X-1924087Y-31227042D01*
X-2099248Y-31154488D01*
X-2099256Y-31154486D01*
X-2285197Y-31117500D01*
X-2285202Y-31117500D01*
X-2474798Y-31117500D01*
X-2474802Y-31117500D01*
X-2660743Y-31154486D01*
X-2660751Y-31154488D01*
X-2835912Y-31227042D01*
X-2993558Y-31332377D01*
X-3127622Y-31466441D01*
X-3162349Y-31518414D01*
X-3232956Y-31624085D01*
X-3305512Y-31799249D01*
X-3342500Y-31985202D01*
X-16657500Y-31985202D01*
X-16657500Y-31985197D01*
X-16694486Y-31799256D01*
X-16694488Y-31799248D01*
X-16767042Y-31624087D01*
X-16872377Y-31466441D01*
X-17006441Y-31332377D01*
X-17164087Y-31227042D01*
X-17339248Y-31154488D01*
X-17339256Y-31154486D01*
X-17525197Y-31117500D01*
X-17525202Y-31117500D01*
X-17714798Y-31117500D01*
X-17714802Y-31117500D01*
X-17900743Y-31154486D01*
X-17900751Y-31154488D01*
X-18075912Y-31227042D01*
X-18233558Y-31332377D01*
X-18367622Y-31466441D01*
X-18402349Y-31518414D01*
X-18472956Y-31624085D01*
X-18545512Y-31799249D01*
X-18582500Y-31985202D01*
X-30075306Y-31985202D01*
X-29969890Y-31879786D01*
X-29844951Y-31707820D01*
X-29748444Y-31518414D01*
X-29687996Y-31332377D01*
X-29682754Y-31316243D01*
X-29649500Y-31106287D01*
X-29649500Y-30893713D01*
X29649500Y-30893713D01*
X29649500Y-31106287D01*
X29682754Y-31316243D01*
X29687996Y-31332377D01*
X29748444Y-31518414D01*
X29844951Y-31707820D01*
X29969890Y-31879786D01*
X30120213Y-32030109D01*
X30292179Y-32155048D01*
X30292181Y-32155049D01*
X30292184Y-32155051D01*
X30481588Y-32251557D01*
X30683757Y-32317246D01*
X30893713Y-32350500D01*
X30893714Y-32350500D01*
X31106286Y-32350500D01*
X31106287Y-32350500D01*
X31316243Y-32317246D01*
X31518412Y-32251557D01*
X31707816Y-32155051D01*
X31729789Y-32139086D01*
X31879786Y-32030109D01*
X31879788Y-32030106D01*
X31879792Y-32030104D01*
X32030104Y-31879792D01*
X32030106Y-31879788D01*
X32030109Y-31879786D01*
X32155048Y-31707820D01*
X32155047Y-31707820D01*
X32155051Y-31707816D01*
X32251557Y-31518412D01*
X32317246Y-31316243D01*
X32350500Y-31106287D01*
X32350500Y-30893713D01*
X32317246Y-30683757D01*
X32251557Y-30481588D01*
X32155051Y-30292184D01*
X32155049Y-30292181D01*
X32155048Y-30292179D01*
X32030109Y-30120213D01*
X31879786Y-29969890D01*
X31707820Y-29844951D01*
X31518414Y-29748444D01*
X31518413Y-29748443D01*
X31518412Y-29748443D01*
X31316243Y-29682754D01*
X31316241Y-29682753D01*
X31316240Y-29682753D01*
X31154957Y-29657208D01*
X31106287Y-29649500D01*
X30893713Y-29649500D01*
X30845042Y-29657208D01*
X30683760Y-29682753D01*
X30481585Y-29748444D01*
X30292179Y-29844951D01*
X30120213Y-29969890D01*
X29969890Y-30120213D01*
X29844951Y-30292179D01*
X29748444Y-30481585D01*
X29682753Y-30683760D01*
X29649500Y-30893713D01*
X-29649500Y-30893713D01*
X-29682753Y-30683760D01*
X-29748444Y-30481585D01*
X-29844951Y-30292179D01*
X-29969890Y-30120213D01*
X-30120213Y-29969890D01*
X-30292179Y-29844951D01*
X-30481585Y-29748444D01*
X-30683760Y-29682753D01*
X-30683759Y-29682753D01*
X-30854202Y-29655757D01*
X-30893713Y-29649500D01*
X-31106287Y-29649500D01*
X-31169644Y-29659534D01*
X-31316239Y-29682753D01*
X-31316241Y-29682753D01*
X-31316243Y-29682754D01*
X-31518412Y-29748443D01*
X-31518413Y-29748443D01*
X-31518414Y-29748444D01*
X-31707820Y-29844951D01*
X-31879786Y-29969890D01*
X-32030109Y-30120213D01*
X-32155048Y-30292179D01*
X-32155049Y-30292181D01*
X-32155051Y-30292184D01*
X-32251557Y-30481588D01*
X-32317246Y-30683757D01*
X-32350500Y-30893713D01*
X-37499500Y-30893713D01*
X-37499500Y-29445202D01*
X-18582500Y-29445202D01*
X-18582500Y-29634798D01*
X-18545512Y-29820751D01*
X-18472956Y-29995915D01*
X-18367622Y-30153558D01*
X-18233558Y-30287622D01*
X-18075915Y-30392956D01*
X-17900751Y-30465512D01*
X-17714800Y-30502499D01*
X-17714799Y-30502500D01*
X-17714798Y-30502500D01*
X-17525201Y-30502500D01*
X-17525197Y-30502499D01*
X-17339249Y-30465512D01*
X-17164085Y-30392956D01*
X-17013269Y-30292184D01*
X-17006441Y-30287622D01*
X-16872377Y-30153558D01*
X-16767042Y-29995912D01*
X-16694488Y-29820751D01*
X-16694486Y-29820743D01*
X-16657500Y-29634802D01*
X-16657500Y-29445202D01*
X-3342500Y-29445202D01*
X-3342500Y-29634798D01*
X-3305512Y-29820751D01*
X-3232956Y-29995915D01*
X-3127622Y-30153558D01*
X-2993558Y-30287622D01*
X-2835915Y-30392956D01*
X-2660751Y-30465512D01*
X-2474800Y-30502499D01*
X-2474799Y-30502500D01*
X-2474798Y-30502500D01*
X-2285201Y-30502500D01*
X-2285197Y-30502499D01*
X-2099249Y-30465512D01*
X-1924085Y-30392956D01*
X-1773269Y-30292184D01*
X-1766441Y-30287622D01*
X-1632377Y-30153558D01*
X-1527042Y-29995912D01*
X-1454488Y-29820751D01*
X-1454486Y-29820743D01*
X-1417500Y-29634802D01*
X-1417500Y-29445197D01*
X-1454486Y-29259256D01*
X-1454488Y-29259248D01*
X-1527042Y-29084087D01*
X-1632377Y-28926441D01*
X-1766441Y-28792377D01*
X-1924087Y-28687042D01*
X-2099248Y-28614488D01*
X-2099256Y-28614486D01*
X-2285197Y-28577500D01*
X-2285202Y-28577500D01*
X-2474798Y-28577500D01*
X-2474802Y-28577500D01*
X-2660743Y-28614486D01*
X-2660751Y-28614488D01*
X-2835912Y-28687042D01*
X-2993558Y-28792377D01*
X-3127622Y-28926441D01*
X-3197686Y-29031300D01*
X-3232956Y-29084085D01*
X-3305512Y-29259249D01*
X-3342500Y-29445202D01*
X-16657500Y-29445202D01*
X-16657500Y-29445197D01*
X-16694486Y-29259256D01*
X-16694488Y-29259248D01*
X-16767042Y-29084087D01*
X-16872377Y-28926441D01*
X-17006441Y-28792377D01*
X-17164087Y-28687042D01*
X-17339248Y-28614488D01*
X-17339256Y-28614486D01*
X-17525197Y-28577500D01*
X-17525202Y-28577500D01*
X-17714798Y-28577500D01*
X-17714802Y-28577500D01*
X-17900743Y-28614486D01*
X-17900751Y-28614488D01*
X-18075912Y-28687042D01*
X-18233558Y-28792377D01*
X-18367622Y-28926441D01*
X-18437686Y-29031300D01*
X-18472956Y-29084085D01*
X-18545512Y-29259249D01*
X-18582500Y-29445202D01*
X-37499500Y-29445202D01*
X-37499500Y-26905202D01*
X-18582500Y-26905202D01*
X-18582500Y-27094798D01*
X-18545512Y-27280751D01*
X-18472956Y-27455915D01*
X-18367622Y-27613558D01*
X-18233558Y-27747622D01*
X-18075915Y-27852956D01*
X-17900751Y-27925512D01*
X-17714800Y-27962499D01*
X-17714799Y-27962500D01*
X-17714798Y-27962500D01*
X-17525201Y-27962500D01*
X-17525197Y-27962499D01*
X-17339249Y-27925512D01*
X-17164085Y-27852956D01*
X-17111300Y-27817686D01*
X-17006441Y-27747622D01*
X-16872377Y-27613558D01*
X-16767042Y-27455912D01*
X-16694488Y-27280751D01*
X-16694486Y-27280743D01*
X-16657500Y-27094802D01*
X-16657500Y-26905202D01*
X-3342500Y-26905202D01*
X-3342500Y-27094798D01*
X-3305512Y-27280751D01*
X-3232956Y-27455915D01*
X-3127622Y-27613558D01*
X-2993558Y-27747622D01*
X-2835915Y-27852956D01*
X-2660751Y-27925512D01*
X-2474800Y-27962499D01*
X-2474799Y-27962500D01*
X-2474798Y-27962500D01*
X-2285201Y-27962500D01*
X-2285197Y-27962499D01*
X-2099249Y-27925512D01*
X-1924085Y-27852956D01*
X-1871300Y-27817686D01*
X-1766441Y-27747622D01*
X-1632377Y-27613558D01*
X-1527042Y-27455912D01*
X-1454488Y-27280751D01*
X-1454486Y-27280743D01*
X-1417500Y-27094802D01*
X-1417500Y-26905197D01*
X-1454486Y-26719256D01*
X-1454488Y-26719248D01*
X-1527042Y-26544087D01*
X-1632377Y-26386441D01*
X-1766441Y-26252377D01*
X-1924087Y-26147042D01*
X-2099248Y-26074488D01*
X-2099256Y-26074486D01*
X-2285197Y-26037500D01*
X-2285202Y-26037500D01*
X-2474798Y-26037500D01*
X-2474802Y-26037500D01*
X-2660743Y-26074486D01*
X-2660751Y-26074488D01*
X-2835912Y-26147042D01*
X-2993558Y-26252377D01*
X-3127622Y-26386441D01*
X-3197686Y-26491300D01*
X-3232956Y-26544085D01*
X-3305512Y-26719249D01*
X-3342500Y-26905202D01*
X-16657500Y-26905202D01*
X-16657500Y-26905197D01*
X-16694486Y-26719256D01*
X-16694488Y-26719248D01*
X-16767042Y-26544087D01*
X-16872377Y-26386441D01*
X-17006441Y-26252377D01*
X-17164087Y-26147042D01*
X-17339248Y-26074488D01*
X-17339256Y-26074486D01*
X-17525197Y-26037500D01*
X-17525202Y-26037500D01*
X-17714798Y-26037500D01*
X-17714802Y-26037500D01*
X-17900743Y-26074486D01*
X-17900751Y-26074488D01*
X-18075912Y-26147042D01*
X-18233558Y-26252377D01*
X-18367622Y-26386441D01*
X-18437686Y-26491300D01*
X-18472956Y-26544085D01*
X-18545512Y-26719249D01*
X-18582500Y-26905202D01*
X-37499500Y-26905202D01*
X-37499500Y-24365202D01*
X-18582500Y-24365202D01*
X-18582500Y-24554798D01*
X-18545512Y-24740751D01*
X-18472956Y-24915915D01*
X-18367622Y-25073558D01*
X-18233558Y-25207622D01*
X-18075915Y-25312956D01*
X-17900751Y-25385512D01*
X-17714800Y-25422499D01*
X-17714799Y-25422500D01*
X-17714798Y-25422500D01*
X-17525201Y-25422500D01*
X-17525197Y-25422499D01*
X-17339249Y-25385512D01*
X-17164085Y-25312956D01*
X-17111300Y-25277686D01*
X-17006441Y-25207622D01*
X-16872377Y-25073558D01*
X-16767042Y-24915912D01*
X-16694488Y-24740751D01*
X-16694486Y-24740743D01*
X-16657500Y-24554802D01*
X-16657500Y-24365202D01*
X-3342500Y-24365202D01*
X-3342500Y-24554798D01*
X-3305512Y-24740751D01*
X-3232956Y-24915915D01*
X-3127622Y-25073558D01*
X-2993558Y-25207622D01*
X-2835915Y-25312956D01*
X-2660751Y-25385512D01*
X-2474800Y-25422499D01*
X-2474799Y-25422500D01*
X-2474798Y-25422500D01*
X-2285201Y-25422500D01*
X-2285197Y-25422499D01*
X-2099249Y-25385512D01*
X-1924085Y-25312956D01*
X-1871300Y-25277686D01*
X-1766441Y-25207622D01*
X-1632377Y-25073558D01*
X-1527042Y-24915912D01*
X-1454488Y-24740751D01*
X-1454486Y-24740743D01*
X-1417500Y-24554802D01*
X-1417500Y-24365197D01*
X-1454486Y-24179256D01*
X-1454488Y-24179248D01*
X-1527042Y-24004087D01*
X-1632377Y-23846441D01*
X-1766441Y-23712377D01*
X-1924087Y-23607042D01*
X-2099248Y-23534488D01*
X-2099256Y-23534486D01*
X-2285197Y-23497500D01*
X-2285202Y-23497500D01*
X-2474798Y-23497500D01*
X-2474802Y-23497500D01*
X-2660743Y-23534486D01*
X-2660751Y-23534488D01*
X-2835912Y-23607042D01*
X-2993558Y-23712377D01*
X-3127622Y-23846441D01*
X-3197686Y-23951300D01*
X-3232956Y-24004085D01*
X-3305512Y-24179249D01*
X-3342500Y-24365202D01*
X-16657500Y-24365202D01*
X-16657500Y-24365197D01*
X-16694486Y-24179256D01*
X-16694488Y-24179248D01*
X-16767042Y-24004087D01*
X-16872377Y-23846441D01*
X-17006441Y-23712377D01*
X-17164087Y-23607042D01*
X-17339248Y-23534488D01*
X-17339256Y-23534486D01*
X-17525197Y-23497500D01*
X-17525202Y-23497500D01*
X-17714798Y-23497500D01*
X-17714802Y-23497500D01*
X-17900743Y-23534486D01*
X-17900751Y-23534488D01*
X-18075912Y-23607042D01*
X-18233558Y-23712377D01*
X-18367622Y-23846441D01*
X-18437686Y-23951300D01*
X-18472956Y-24004085D01*
X-18545512Y-24179249D01*
X-18582500Y-24365202D01*
X-37499500Y-24365202D01*
X-37499500Y-21820678D01*
X-18882000Y-21820678D01*
X-18882000Y-22019321D01*
X-18850924Y-22215520D01*
X-18850924Y-22215523D01*
X-18789542Y-22404437D01*
X-18699362Y-22581425D01*
X-18672268Y-22618715D01*
X-18057647Y-22004094D01*
X-18034208Y-22091571D01*
X-17975689Y-22192930D01*
X-17892930Y-22275689D01*
X-17791571Y-22334208D01*
X-17704095Y-22357647D01*
X-18318716Y-22972268D01*
X-18281425Y-22999362D01*
X-18104437Y-23089542D01*
X-17915522Y-23150924D01*
X-17719321Y-23182000D01*
X-17520679Y-23182000D01*
X-17324479Y-23150924D01*
X-17324476Y-23150924D01*
X-17135562Y-23089542D01*
X-16958567Y-22999358D01*
X-16921283Y-22972269D01*
X-16921283Y-22972268D01*
X-17535905Y-22357647D01*
X-17448429Y-22334208D01*
X-17347070Y-22275689D01*
X-17264311Y-22192930D01*
X-17205792Y-22091571D01*
X-17182352Y-22004094D01*
X-16567731Y-22618716D01*
X-16567730Y-22618715D01*
X-16540641Y-22581432D01*
X-16450457Y-22404437D01*
X-16389075Y-22215523D01*
X-16389075Y-22215520D01*
X-16358000Y-22019321D01*
X-16358000Y-21825202D01*
X-3342500Y-21825202D01*
X-3342500Y-22014798D01*
X-3305512Y-22200751D01*
X-3232956Y-22375915D01*
X-3127622Y-22533558D01*
X-2993558Y-22667622D01*
X-2835915Y-22772956D01*
X-2660751Y-22845512D01*
X-2474800Y-22882499D01*
X-2474799Y-22882500D01*
X-2474798Y-22882500D01*
X-2285201Y-22882500D01*
X-2285197Y-22882499D01*
X-2099249Y-22845512D01*
X-1924085Y-22772956D01*
X-1871300Y-22737686D01*
X-1766441Y-22667622D01*
X-1632377Y-22533558D01*
X-1527042Y-22375912D01*
X-1454488Y-22200751D01*
X-1454486Y-22200743D01*
X-1417500Y-22014802D01*
X-1417500Y-21825197D01*
X-1454486Y-21639256D01*
X-1454488Y-21639248D01*
X-1527042Y-21464087D01*
X-1632377Y-21306441D01*
X-1766441Y-21172377D01*
X-1924087Y-21067042D01*
X-2099248Y-20994488D01*
X-2099256Y-20994486D01*
X-2285197Y-20957500D01*
X-2285202Y-20957500D01*
X-2474798Y-20957500D01*
X-2474802Y-20957500D01*
X-2660743Y-20994486D01*
X-2660751Y-20994488D01*
X-2835912Y-21067042D01*
X-2993558Y-21172377D01*
X-3127622Y-21306441D01*
X-3197686Y-21411300D01*
X-3232956Y-21464085D01*
X-3305512Y-21639249D01*
X-3342500Y-21825202D01*
X-16358000Y-21825202D01*
X-16358000Y-21820678D01*
X-16389075Y-21624479D01*
X-16389075Y-21624476D01*
X-16450457Y-21435562D01*
X-16540643Y-21258564D01*
X-16567729Y-21221283D01*
X-16567730Y-21221282D01*
X-17182352Y-21835905D01*
X-17205792Y-21748429D01*
X-17264311Y-21647070D01*
X-17347070Y-21564311D01*
X-17448429Y-21505792D01*
X-17535906Y-21482352D01*
X-16921282Y-20867730D01*
X-16921283Y-20867729D01*
X-16958564Y-20840643D01*
X-17135562Y-20750457D01*
X-17324477Y-20689075D01*
X-17520679Y-20658000D01*
X-17719321Y-20658000D01*
X-17915520Y-20689075D01*
X-17915523Y-20689075D01*
X-18104437Y-20750457D01*
X-18281432Y-20840641D01*
X-18318715Y-20867730D01*
X-18318716Y-20867731D01*
X-17704094Y-21482352D01*
X-17791571Y-21505792D01*
X-17892930Y-21564311D01*
X-17975689Y-21647070D01*
X-18034208Y-21748429D01*
X-18057647Y-21835904D01*
X-18672268Y-21221283D01*
X-18672269Y-21221283D01*
X-18699358Y-21258567D01*
X-18789542Y-21435562D01*
X-18850924Y-21624476D01*
X-18850924Y-21624479D01*
X-18882000Y-21820678D01*
X-37499500Y-21820678D01*
X-37499500Y-19285202D01*
X-18582500Y-19285202D01*
X-18582500Y-19474798D01*
X-18545512Y-19660751D01*
X-18472956Y-19835915D01*
X-18367622Y-19993558D01*
X-18233558Y-20127622D01*
X-18075915Y-20232956D01*
X-17900751Y-20305512D01*
X-17714800Y-20342499D01*
X-17714799Y-20342500D01*
X-17714798Y-20342500D01*
X-17525201Y-20342500D01*
X-17525197Y-20342499D01*
X-17339249Y-20305512D01*
X-17164085Y-20232956D01*
X-17111300Y-20197686D01*
X-17006441Y-20127622D01*
X-16872377Y-19993558D01*
X-16767042Y-19835912D01*
X-16694488Y-19660751D01*
X-16694486Y-19660743D01*
X-16657500Y-19474802D01*
X-16657500Y-19285202D01*
X-3342500Y-19285202D01*
X-3342500Y-19474798D01*
X-3305512Y-19660751D01*
X-3232956Y-19835915D01*
X-3127622Y-19993558D01*
X-2993558Y-20127622D01*
X-2835915Y-20232956D01*
X-2660751Y-20305512D01*
X-2474800Y-20342499D01*
X-2474799Y-20342500D01*
X-2474798Y-20342500D01*
X-2285201Y-20342500D01*
X-2285197Y-20342499D01*
X-2099249Y-20305512D01*
X-1924085Y-20232956D01*
X-1871300Y-20197686D01*
X-1766441Y-20127622D01*
X-1632377Y-19993558D01*
X-1527042Y-19835912D01*
X-1454488Y-19660751D01*
X-1454486Y-19660743D01*
X-1417500Y-19474802D01*
X-1417500Y-19285197D01*
X-1454486Y-19099256D01*
X-1454488Y-19099248D01*
X-1527042Y-18924087D01*
X-1632377Y-18766441D01*
X-1766441Y-18632377D01*
X-1924087Y-18527042D01*
X-2099248Y-18454488D01*
X-2099256Y-18454486D01*
X-2285197Y-18417500D01*
X-2285202Y-18417500D01*
X-2474798Y-18417500D01*
X-2474802Y-18417500D01*
X-2660743Y-18454486D01*
X-2660751Y-18454488D01*
X-2835912Y-18527042D01*
X-2993558Y-18632377D01*
X-3127622Y-18766441D01*
X-3197686Y-18871300D01*
X-3232956Y-18924085D01*
X-3305512Y-19099249D01*
X-3342500Y-19285202D01*
X-16657500Y-19285202D01*
X-16657500Y-19285197D01*
X-16694486Y-19099256D01*
X-16694488Y-19099248D01*
X-16767042Y-18924087D01*
X-16872377Y-18766441D01*
X-17006441Y-18632377D01*
X-17164087Y-18527042D01*
X-17339248Y-18454488D01*
X-17339256Y-18454486D01*
X-17525197Y-18417500D01*
X-17525202Y-18417500D01*
X-17714798Y-18417500D01*
X-17714802Y-18417500D01*
X-17900743Y-18454486D01*
X-17900751Y-18454488D01*
X-18075912Y-18527042D01*
X-18233558Y-18632377D01*
X-18367622Y-18766441D01*
X-18437686Y-18871300D01*
X-18472956Y-18924085D01*
X-18545512Y-19099249D01*
X-18582500Y-19285202D01*
X-37499500Y-19285202D01*
X-37499500Y-14518389D01*
X-27770500Y-14518389D01*
X-27770500Y-14691611D01*
X-27743402Y-14862701D01*
X-27689873Y-15027445D01*
X-27611232Y-15181788D01*
X-27509414Y-15321928D01*
X-27386928Y-15444414D01*
X-27246788Y-15546232D01*
X-27092445Y-15624873D01*
X-26927701Y-15678402D01*
X-26756611Y-15705500D01*
X-26756610Y-15705500D01*
X-26583390Y-15705500D01*
X-26583389Y-15705500D01*
X-26412299Y-15678402D01*
X-26247555Y-15624873D01*
X-26093212Y-15546232D01*
X-25953072Y-15444414D01*
X-25830586Y-15321928D01*
X-25728768Y-15181788D01*
X-25650127Y-15027445D01*
X-25596598Y-14862701D01*
X-25569500Y-14691611D01*
X-25569500Y-14518389D01*
X-25576715Y-14472831D01*
X-25576715Y-14472829D01*
X-25579144Y-14457494D01*
X-23840500Y-14457494D01*
X-23840500Y-14752506D01*
X-23801993Y-15044993D01*
X-23725639Y-15329952D01*
X-23612743Y-15602507D01*
X-23465238Y-15857994D01*
X-23285646Y-16092042D01*
X-23077042Y-16300646D01*
X-22842994Y-16480238D01*
X-22587507Y-16627743D01*
X-22314952Y-16740639D01*
X-22029993Y-16816993D01*
X-21737506Y-16855500D01*
X-21737499Y-16855500D01*
X-21442501Y-16855500D01*
X-21442494Y-16855500D01*
X-21150007Y-16816993D01*
X-20865048Y-16740639D01*
X-20592493Y-16627743D01*
X-20592490Y-16627741D01*
X-20592489Y-16627741D01*
X-20337006Y-16480238D01*
X-20102959Y-16300647D01*
X-20102952Y-16300641D01*
X-19894358Y-16092047D01*
X-19894352Y-16092040D01*
X-19714761Y-15857993D01*
X-19567258Y-15602510D01*
X-19567254Y-15602500D01*
X-19454364Y-15329961D01*
X-19454361Y-15329951D01*
X-19452212Y-15321930D01*
X-19378007Y-15044993D01*
X-19371571Y-14996113D01*
X-19339500Y-14752513D01*
X-19339500Y-14518389D01*
X-17610500Y-14518389D01*
X-17610500Y-14691611D01*
X-17583402Y-14862701D01*
X-17529873Y-15027445D01*
X-17451232Y-15181788D01*
X-17349414Y-15321928D01*
X-17226928Y-15444414D01*
X-17086788Y-15546232D01*
X-16932445Y-15624873D01*
X-16767701Y-15678402D01*
X-16596611Y-15705500D01*
X-16596610Y-15705500D01*
X-16423390Y-15705500D01*
X-16423389Y-15705500D01*
X-16252299Y-15678402D01*
X-16087555Y-15624873D01*
X-15933212Y-15546232D01*
X-15793072Y-15444414D01*
X-15670586Y-15321928D01*
X-15568768Y-15181788D01*
X-15490127Y-15027445D01*
X-15436598Y-14862701D01*
X-15409500Y-14691611D01*
X-15409500Y-14518389D01*
X-8720500Y-14518389D01*
X-8720500Y-14691611D01*
X-8693402Y-14862701D01*
X-8639873Y-15027445D01*
X-8561232Y-15181788D01*
X-8459414Y-15321928D01*
X-8336928Y-15444414D01*
X-8196788Y-15546232D01*
X-8042445Y-15624873D01*
X-7877701Y-15678402D01*
X-7706611Y-15705500D01*
X-7706610Y-15705500D01*
X-7533390Y-15705500D01*
X-7533389Y-15705500D01*
X-7362299Y-15678402D01*
X-7197555Y-15624873D01*
X-7043212Y-15546232D01*
X-6903072Y-15444414D01*
X-6780586Y-15321928D01*
X-6678768Y-15181788D01*
X-6600127Y-15027445D01*
X-6546598Y-14862701D01*
X-6519500Y-14691611D01*
X-6519500Y-14518389D01*
X-6526715Y-14472831D01*
X-6526715Y-14472829D01*
X-6529144Y-14457494D01*
X-4790500Y-14457494D01*
X-4790500Y-14752506D01*
X-4751993Y-15044993D01*
X-4675639Y-15329952D01*
X-4562743Y-15602507D01*
X-4415238Y-15857994D01*
X-4235646Y-16092042D01*
X-4027042Y-16300646D01*
X-3792994Y-16480238D01*
X-3537507Y-16627743D01*
X-3264952Y-16740639D01*
X-2979993Y-16816993D01*
X-2687506Y-16855500D01*
X-2687499Y-16855500D01*
X-2392501Y-16855500D01*
X-2392494Y-16855500D01*
X-2100007Y-16816993D01*
X-1815048Y-16740639D01*
X-1542493Y-16627743D01*
X-1542490Y-16627741D01*
X-1542489Y-16627741D01*
X-1287006Y-16480238D01*
X-1052959Y-16300647D01*
X-1052952Y-16300641D01*
X-844358Y-16092047D01*
X-844352Y-16092040D01*
X-664761Y-15857993D01*
X-517258Y-15602510D01*
X-517254Y-15602500D01*
X-404364Y-15329961D01*
X-404361Y-15329951D01*
X-402212Y-15321930D01*
X-328007Y-15044993D01*
X-321571Y-14996113D01*
X-289500Y-14752513D01*
X-289500Y-14518389D01*
X1439500Y-14518389D01*
X1439500Y-14691611D01*
X1466598Y-14862701D01*
X1520127Y-15027445D01*
X1598768Y-15181788D01*
X1700586Y-15321928D01*
X1823072Y-15444414D01*
X1963212Y-15546232D01*
X2117555Y-15624873D01*
X2282299Y-15678402D01*
X2453389Y-15705500D01*
X2453390Y-15705500D01*
X2626610Y-15705500D01*
X2626611Y-15705500D01*
X2797701Y-15678402D01*
X2962445Y-15624873D01*
X3116788Y-15546232D01*
X3256928Y-15444414D01*
X3379414Y-15321928D01*
X3481232Y-15181788D01*
X3559873Y-15027445D01*
X3613402Y-14862701D01*
X3640500Y-14691611D01*
X3640500Y-14518389D01*
X10329500Y-14518389D01*
X10329500Y-14691611D01*
X10356598Y-14862701D01*
X10410127Y-15027445D01*
X10488768Y-15181788D01*
X10590586Y-15321928D01*
X10713072Y-15444414D01*
X10853212Y-15546232D01*
X11007555Y-15624873D01*
X11172299Y-15678402D01*
X11343389Y-15705500D01*
X11343390Y-15705500D01*
X11516610Y-15705500D01*
X11516611Y-15705500D01*
X11687701Y-15678402D01*
X11852445Y-15624873D01*
X12006788Y-15546232D01*
X12146928Y-15444414D01*
X12269414Y-15321928D01*
X12371232Y-15181788D01*
X12449873Y-15027445D01*
X12503402Y-14862701D01*
X12530500Y-14691611D01*
X12530500Y-14518389D01*
X12520854Y-14457486D01*
X14259500Y-14457486D01*
X14259500Y-14752513D01*
X14291571Y-14996113D01*
X14298007Y-15044993D01*
X14372212Y-15321930D01*
X14374361Y-15329951D01*
X14374364Y-15329961D01*
X14487254Y-15602500D01*
X14487258Y-15602510D01*
X14634761Y-15857993D01*
X14814352Y-16092040D01*
X14814358Y-16092047D01*
X15022952Y-16300641D01*
X15022959Y-16300647D01*
X15257006Y-16480238D01*
X15512489Y-16627741D01*
X15512490Y-16627741D01*
X15512493Y-16627743D01*
X15785048Y-16740639D01*
X16070007Y-16816993D01*
X16362494Y-16855500D01*
X16362501Y-16855500D01*
X16657499Y-16855500D01*
X16657506Y-16855500D01*
X16949993Y-16816993D01*
X17234952Y-16740639D01*
X17507507Y-16627743D01*
X17762994Y-16480238D01*
X17997042Y-16300646D01*
X18205646Y-16092042D01*
X18385238Y-15857994D01*
X18532743Y-15602507D01*
X18645639Y-15329952D01*
X18721993Y-15044993D01*
X18760500Y-14752506D01*
X18760500Y-14518389D01*
X20489500Y-14518389D01*
X20489500Y-14691611D01*
X20516598Y-14862701D01*
X20570127Y-15027445D01*
X20648768Y-15181788D01*
X20750586Y-15321928D01*
X20873072Y-15444414D01*
X21013212Y-15546232D01*
X21167555Y-15624873D01*
X21332299Y-15678402D01*
X21503389Y-15705500D01*
X21503390Y-15705500D01*
X21676610Y-15705500D01*
X21676611Y-15705500D01*
X21847701Y-15678402D01*
X22012445Y-15624873D01*
X22166788Y-15546232D01*
X22306928Y-15444414D01*
X22429414Y-15321928D01*
X22531232Y-15181788D01*
X22609873Y-15027445D01*
X22663402Y-14862701D01*
X22690500Y-14691611D01*
X22690500Y-14518389D01*
X22663402Y-14347299D01*
X22609873Y-14182555D01*
X22531232Y-14028212D01*
X22429414Y-13888072D01*
X22306928Y-13765586D01*
X22166788Y-13663768D01*
X22012445Y-13585127D01*
X21847701Y-13531598D01*
X21847699Y-13531597D01*
X21847698Y-13531597D01*
X21716271Y-13510781D01*
X21676611Y-13504500D01*
X21503389Y-13504500D01*
X21463728Y-13510781D01*
X21332302Y-13531597D01*
X21167552Y-13585128D01*
X21013211Y-13663768D01*
X20957116Y-13704524D01*
X20873072Y-13765586D01*
X20873070Y-13765588D01*
X20873069Y-13765588D01*
X20750588Y-13888069D01*
X20750588Y-13888070D01*
X20750586Y-13888072D01*
X20706859Y-13948256D01*
X20648768Y-14028211D01*
X20570128Y-14182552D01*
X20516597Y-14347302D01*
X20489500Y-14518389D01*
X18760500Y-14518389D01*
X18760500Y-14457494D01*
X18721993Y-14165007D01*
X18645639Y-13880048D01*
X18532743Y-13607493D01*
X18482604Y-13520650D01*
X18385238Y-13352006D01*
X18205647Y-13117959D01*
X18205641Y-13117952D01*
X17997047Y-12909358D01*
X17997040Y-12909352D01*
X17762993Y-12729761D01*
X17507510Y-12582258D01*
X17507500Y-12582254D01*
X17234961Y-12469364D01*
X17234954Y-12469362D01*
X17234952Y-12469361D01*
X16949993Y-12393007D01*
X16901113Y-12386571D01*
X16657513Y-12354500D01*
X16657506Y-12354500D01*
X16362494Y-12354500D01*
X16362486Y-12354500D01*
X16084085Y-12391153D01*
X16070007Y-12393007D01*
X15895861Y-12439669D01*
X15785048Y-12469361D01*
X15785038Y-12469364D01*
X15512499Y-12582254D01*
X15512489Y-12582258D01*
X15257006Y-12729761D01*
X15022959Y-12909352D01*
X15022952Y-12909358D01*
X14814358Y-13117952D01*
X14814352Y-13117959D01*
X14634761Y-13352006D01*
X14487258Y-13607489D01*
X14487254Y-13607499D01*
X14374364Y-13880038D01*
X14374361Y-13880048D01*
X14298008Y-14165004D01*
X14298006Y-14165015D01*
X14259500Y-14457486D01*
X12520854Y-14457486D01*
X12503402Y-14347299D01*
X12449873Y-14182555D01*
X12371232Y-14028212D01*
X12269414Y-13888072D01*
X12216881Y-13835539D01*
X12183397Y-13774217D01*
X12188381Y-13704525D01*
X12230253Y-13648592D01*
X12295717Y-13624175D01*
X12323961Y-13625386D01*
X12574072Y-13665000D01*
X12825928Y-13665000D01*
X13074669Y-13625602D01*
X13314184Y-13547780D01*
X13538575Y-13433446D01*
X13538581Y-13433442D01*
X13640697Y-13359250D01*
X13640698Y-13359250D01*
X13024025Y-12742578D01*
X13055258Y-12729641D01*
X13178097Y-12647563D01*
X13282563Y-12543097D01*
X13364641Y-12420258D01*
X13377578Y-12389025D01*
X13994250Y-13005698D01*
X13994250Y-13005697D01*
X14068442Y-12903581D01*
X14068446Y-12903575D01*
X14182780Y-12679184D01*
X14260602Y-12439669D01*
X14300000Y-12190928D01*
X14300000Y-11939071D01*
X14260602Y-11690330D01*
X14182780Y-11450815D01*
X14068442Y-11226416D01*
X13994250Y-11124301D01*
X13994250Y-11124300D01*
X13377577Y-11740973D01*
X13364641Y-11709742D01*
X13282563Y-11586903D01*
X13178097Y-11482437D01*
X13055258Y-11400359D01*
X13024024Y-11387421D01*
X13640698Y-10770748D01*
X13538583Y-10696557D01*
X13314184Y-10582219D01*
X13074669Y-10504397D01*
X12825928Y-10465000D01*
X12574072Y-10465000D01*
X12325330Y-10504397D01*
X12085815Y-10582219D01*
X11861413Y-10696559D01*
X11759301Y-10770747D01*
X11759300Y-10770748D01*
X12375974Y-11387421D01*
X12344742Y-11400359D01*
X12221903Y-11482437D01*
X12117437Y-11586903D01*
X12035359Y-11709742D01*
X12022421Y-11740974D01*
X11405748Y-11124300D01*
X11405747Y-11124301D01*
X11331559Y-11226413D01*
X11217219Y-11450815D01*
X11139397Y-11690330D01*
X11100000Y-11939071D01*
X11100000Y-12190928D01*
X11139397Y-12439669D01*
X11217219Y-12679184D01*
X11331557Y-12903583D01*
X11405748Y-13005697D01*
X11405748Y-13005698D01*
X12022421Y-12389024D01*
X12035359Y-12420258D01*
X12117437Y-12543097D01*
X12221903Y-12647563D01*
X12344742Y-12729641D01*
X12375974Y-12742577D01*
X11759300Y-13359250D01*
X11761598Y-13388449D01*
X11747233Y-13456827D01*
X11698181Y-13506583D01*
X11630016Y-13521921D01*
X11618583Y-13520650D01*
X11516611Y-13504500D01*
X11343389Y-13504500D01*
X11303728Y-13510781D01*
X11172302Y-13531597D01*
X11007552Y-13585128D01*
X10853211Y-13663768D01*
X10797116Y-13704524D01*
X10713072Y-13765586D01*
X10713070Y-13765588D01*
X10713069Y-13765588D01*
X10590588Y-13888069D01*
X10590588Y-13888070D01*
X10590586Y-13888072D01*
X10546859Y-13948256D01*
X10488768Y-14028211D01*
X10410128Y-14182552D01*
X10356597Y-14347302D01*
X10329500Y-14518389D01*
X3640500Y-14518389D01*
X3613402Y-14347299D01*
X3559873Y-14182555D01*
X3481232Y-14028212D01*
X3379414Y-13888072D01*
X3256928Y-13765586D01*
X3116788Y-13663768D01*
X2962445Y-13585127D01*
X2797701Y-13531598D01*
X2797699Y-13531597D01*
X2797698Y-13531597D01*
X2666271Y-13510781D01*
X2626611Y-13504500D01*
X2453389Y-13504500D01*
X2413728Y-13510781D01*
X2282302Y-13531597D01*
X2117552Y-13585128D01*
X1963211Y-13663768D01*
X1907116Y-13704524D01*
X1823072Y-13765586D01*
X1823070Y-13765588D01*
X1823069Y-13765588D01*
X1700588Y-13888069D01*
X1700588Y-13888070D01*
X1700586Y-13888072D01*
X1656859Y-13948256D01*
X1598768Y-14028211D01*
X1520128Y-14182552D01*
X1466597Y-14347302D01*
X1439500Y-14518389D01*
X-289500Y-14518389D01*
X-289500Y-14457486D01*
X-328006Y-14165015D01*
X-328008Y-14165004D01*
X-404361Y-13880048D01*
X-404364Y-13880038D01*
X-517254Y-13607499D01*
X-517258Y-13607489D01*
X-664761Y-13352006D01*
X-844352Y-13117959D01*
X-844358Y-13117952D01*
X-1052952Y-12909358D01*
X-1052959Y-12909352D01*
X-1287006Y-12729761D01*
X-1542489Y-12582258D01*
X-1542499Y-12582254D01*
X-1815038Y-12469364D01*
X-1815048Y-12469361D01*
X-1925861Y-12439669D01*
X-2100007Y-12393007D01*
X-2114085Y-12391153D01*
X-2392486Y-12354500D01*
X-2392494Y-12354500D01*
X-2687506Y-12354500D01*
X-2687513Y-12354500D01*
X-2931113Y-12386571D01*
X-2979993Y-12393007D01*
X-3264952Y-12469361D01*
X-3264954Y-12469362D01*
X-3264961Y-12469364D01*
X-3537500Y-12582254D01*
X-3537510Y-12582258D01*
X-3792993Y-12729761D01*
X-4027040Y-12909352D01*
X-4027047Y-12909358D01*
X-4235641Y-13117952D01*
X-4235647Y-13117959D01*
X-4415238Y-13352006D01*
X-4512604Y-13520650D01*
X-4562743Y-13607493D01*
X-4675639Y-13880048D01*
X-4751993Y-14165007D01*
X-4790500Y-14457494D01*
X-6529144Y-14457494D01*
X-6546597Y-14347302D01*
X-6600128Y-14182552D01*
X-6678768Y-14028211D01*
X-6736859Y-13948256D01*
X-6780586Y-13888072D01*
X-6780588Y-13888070D01*
X-6780589Y-13888068D01*
X-6833118Y-13835539D01*
X-6866602Y-13774216D01*
X-6861617Y-13704524D01*
X-6819746Y-13648591D01*
X-6754281Y-13624175D01*
X-6726038Y-13625386D01*
X-6475928Y-13665000D01*
X-6224072Y-13665000D01*
X-5975330Y-13625602D01*
X-5735815Y-13547780D01*
X-5511416Y-13433442D01*
X-5409301Y-13359250D01*
X-5409300Y-13359250D01*
X-6025974Y-12742577D01*
X-5994742Y-12729641D01*
X-5871903Y-12647563D01*
X-5767437Y-12543097D01*
X-5685359Y-12420258D01*
X-5672421Y-12389024D01*
X-5055748Y-13005698D01*
X-5055748Y-13005697D01*
X-4981557Y-12903583D01*
X-4867219Y-12679184D01*
X-4789397Y-12439669D01*
X-4750000Y-12190928D01*
X-4750000Y-11939071D01*
X-4789397Y-11690330D01*
X-4867219Y-11450815D01*
X-4981559Y-11226413D01*
X-5055747Y-11124301D01*
X-5055748Y-11124300D01*
X-5672421Y-11740974D01*
X-5685359Y-11709742D01*
X-5767437Y-11586903D01*
X-5871903Y-11482437D01*
X-5994742Y-11400359D01*
X-6025974Y-11387421D01*
X-5409300Y-10770748D01*
X-5409301Y-10770747D01*
X-5511413Y-10696559D01*
X-5735815Y-10582219D01*
X-5975330Y-10504397D01*
X-6224072Y-10465000D01*
X-6475928Y-10465000D01*
X-6724669Y-10504397D01*
X-6964184Y-10582219D01*
X-7188583Y-10696557D01*
X-7290697Y-10770748D01*
X-7290698Y-10770748D01*
X-6674024Y-11387421D01*
X-6705258Y-11400359D01*
X-6828097Y-11482437D01*
X-6932563Y-11586903D01*
X-7014641Y-11709742D01*
X-7027577Y-11740973D01*
X-7644250Y-11124300D01*
X-7644250Y-11124301D01*
X-7718442Y-11226416D01*
X-7832780Y-11450815D01*
X-7910602Y-11690330D01*
X-7950000Y-11939071D01*
X-7950000Y-12190928D01*
X-7910602Y-12439669D01*
X-7832780Y-12679184D01*
X-7718446Y-12903575D01*
X-7718442Y-12903581D01*
X-7644250Y-13005697D01*
X-7644250Y-13005698D01*
X-7027578Y-12389025D01*
X-7014641Y-12420258D01*
X-6932563Y-12543097D01*
X-6828097Y-12647563D01*
X-6705258Y-12729641D01*
X-6674025Y-12742578D01*
X-7290697Y-13359249D01*
X-7288400Y-13388448D01*
X-7302764Y-13456825D01*
X-7351816Y-13506582D01*
X-7419981Y-13521921D01*
X-7431415Y-13520651D01*
X-7440997Y-13519133D01*
X-7533389Y-13504500D01*
X-7706611Y-13504500D01*
X-7758239Y-13512677D01*
X-7877697Y-13531597D01*
X-7877699Y-13531597D01*
X-7877701Y-13531598D01*
X-8042445Y-13585127D01*
X-8196788Y-13663768D01*
X-8336928Y-13765586D01*
X-8459414Y-13888072D01*
X-8561232Y-14028212D01*
X-8639873Y-14182555D01*
X-8693402Y-14347299D01*
X-8720500Y-14518389D01*
X-15409500Y-14518389D01*
X-15436597Y-14347302D01*
X-15490128Y-14182552D01*
X-15568768Y-14028211D01*
X-15626859Y-13948256D01*
X-15670586Y-13888072D01*
X-15670588Y-13888070D01*
X-15670588Y-13888069D01*
X-15793069Y-13765588D01*
X-15933211Y-13663768D01*
X-16087552Y-13585128D01*
X-16252302Y-13531597D01*
X-16252301Y-13531597D01*
X-16391192Y-13509599D01*
X-16423389Y-13504500D01*
X-16596611Y-13504500D01*
X-16648239Y-13512677D01*
X-16767697Y-13531597D01*
X-16767699Y-13531597D01*
X-16767701Y-13531598D01*
X-16932445Y-13585127D01*
X-17086788Y-13663768D01*
X-17226928Y-13765586D01*
X-17349414Y-13888072D01*
X-17451232Y-14028212D01*
X-17529873Y-14182555D01*
X-17583402Y-14347299D01*
X-17610500Y-14518389D01*
X-19339500Y-14518389D01*
X-19339500Y-14457486D01*
X-19378006Y-14165015D01*
X-19378008Y-14165004D01*
X-19454361Y-13880048D01*
X-19454364Y-13880038D01*
X-19567254Y-13607499D01*
X-19567258Y-13607489D01*
X-19714761Y-13352006D01*
X-19894352Y-13117959D01*
X-19894358Y-13117952D01*
X-20102952Y-12909358D01*
X-20102959Y-12909352D01*
X-20337006Y-12729761D01*
X-20592489Y-12582258D01*
X-20592499Y-12582254D01*
X-20865038Y-12469364D01*
X-20865048Y-12469361D01*
X-20975861Y-12439669D01*
X-21150007Y-12393007D01*
X-21164085Y-12391153D01*
X-21442486Y-12354500D01*
X-21442494Y-12354500D01*
X-21737506Y-12354500D01*
X-21737513Y-12354500D01*
X-21981113Y-12386571D01*
X-22029993Y-12393007D01*
X-22314952Y-12469361D01*
X-22314954Y-12469362D01*
X-22314961Y-12469364D01*
X-22587500Y-12582254D01*
X-22587510Y-12582258D01*
X-22842993Y-12729761D01*
X-23077040Y-12909352D01*
X-23077047Y-12909358D01*
X-23285641Y-13117952D01*
X-23285647Y-13117959D01*
X-23465238Y-13352006D01*
X-23562604Y-13520650D01*
X-23612743Y-13607493D01*
X-23725639Y-13880048D01*
X-23801993Y-14165007D01*
X-23840500Y-14457494D01*
X-25579144Y-14457494D01*
X-25596597Y-14347302D01*
X-25650128Y-14182552D01*
X-25728768Y-14028211D01*
X-25786859Y-13948256D01*
X-25830586Y-13888072D01*
X-25830588Y-13888070D01*
X-25830589Y-13888068D01*
X-25883118Y-13835539D01*
X-25916602Y-13774216D01*
X-25911617Y-13704524D01*
X-25869746Y-13648591D01*
X-25804281Y-13624175D01*
X-25776038Y-13625386D01*
X-25525928Y-13665000D01*
X-25274072Y-13665000D01*
X-25025330Y-13625602D01*
X-24785815Y-13547780D01*
X-24561416Y-13433442D01*
X-24459301Y-13359250D01*
X-24459300Y-13359250D01*
X-25075974Y-12742577D01*
X-25044742Y-12729641D01*
X-24921903Y-12647563D01*
X-24817437Y-12543097D01*
X-24735359Y-12420258D01*
X-24722421Y-12389024D01*
X-24105748Y-13005698D01*
X-24105748Y-13005697D01*
X-24031557Y-12903583D01*
X-23917219Y-12679184D01*
X-23839397Y-12439669D01*
X-23800000Y-12190928D01*
X-23800000Y-11939071D01*
X-23839397Y-11690330D01*
X-23917219Y-11450815D01*
X-24031559Y-11226413D01*
X-24105747Y-11124301D01*
X-24105748Y-11124300D01*
X-24722421Y-11740974D01*
X-24735359Y-11709742D01*
X-24817437Y-11586903D01*
X-24921903Y-11482437D01*
X-25044742Y-11400359D01*
X-25075974Y-11387421D01*
X-24459300Y-10770748D01*
X-24459301Y-10770747D01*
X-24561413Y-10696559D01*
X-24785815Y-10582219D01*
X-25025330Y-10504397D01*
X-25274072Y-10465000D01*
X-25525928Y-10465000D01*
X-25774669Y-10504397D01*
X-26014184Y-10582219D01*
X-26238583Y-10696557D01*
X-26340697Y-10770748D01*
X-26340698Y-10770748D01*
X-25724024Y-11387421D01*
X-25755258Y-11400359D01*
X-25878097Y-11482437D01*
X-25982563Y-11586903D01*
X-26064641Y-11709742D01*
X-26077577Y-11740973D01*
X-26694250Y-11124300D01*
X-26694250Y-11124301D01*
X-26768442Y-11226416D01*
X-26882780Y-11450815D01*
X-26960602Y-11690330D01*
X-27000000Y-11939071D01*
X-27000000Y-12190928D01*
X-26960602Y-12439669D01*
X-26882780Y-12679184D01*
X-26768446Y-12903575D01*
X-26768442Y-12903581D01*
X-26694250Y-13005697D01*
X-26694250Y-13005698D01*
X-26077577Y-12389025D01*
X-26064641Y-12420258D01*
X-25982563Y-12543097D01*
X-25878097Y-12647563D01*
X-25755258Y-12729641D01*
X-25724025Y-12742578D01*
X-26340697Y-13359249D01*
X-26338400Y-13388448D01*
X-26352764Y-13456825D01*
X-26401816Y-13506582D01*
X-26469981Y-13521921D01*
X-26481415Y-13520651D01*
X-26490997Y-13519133D01*
X-26583389Y-13504500D01*
X-26756611Y-13504500D01*
X-26808239Y-13512677D01*
X-26927697Y-13531597D01*
X-26927699Y-13531597D01*
X-26927701Y-13531598D01*
X-27092445Y-13585127D01*
X-27246788Y-13663768D01*
X-27386928Y-13765586D01*
X-27509414Y-13888072D01*
X-27611232Y-14028212D01*
X-27689873Y-14182555D01*
X-27743402Y-14347299D01*
X-27770500Y-14518389D01*
X-37499500Y-14518389D01*
X-37499500Y-9422648D01*
X-20350500Y-9422648D01*
X-20350500Y-9627352D01*
X-20318477Y-9829534D01*
X-20255220Y-10024219D01*
X-20162287Y-10206610D01*
X-20094732Y-10299590D01*
X-20041971Y-10372213D01*
X-20041968Y-10372215D01*
X-20041966Y-10372219D01*
X-19897219Y-10516966D01*
X-19897215Y-10516968D01*
X-19897213Y-10516971D01*
X-19824590Y-10569732D01*
X-19731610Y-10637287D01*
X-19549219Y-10730220D01*
X-19354534Y-10793477D01*
X-19152352Y-10825500D01*
X-19152351Y-10825500D01*
X-18947649Y-10825500D01*
X-18947648Y-10825500D01*
X-18846557Y-10809488D01*
X-18745465Y-10793477D01*
X-18686658Y-10774369D01*
X-18550781Y-10730220D01*
X-18550776Y-10730217D01*
X-18550771Y-10730216D01*
X-18506239Y-10707525D01*
X-18506236Y-10707523D01*
X-18484714Y-10696557D01*
X-18368390Y-10637287D01*
X-18368387Y-10637285D01*
X-18368385Y-10637284D01*
X-18202786Y-10516971D01*
X-18058028Y-10372213D01*
X-17937715Y-10206613D01*
X-17844781Y-10024223D01*
X-17781522Y-9829534D01*
X-17749500Y-9627351D01*
X-17749500Y-9422648D01*
X-1300500Y-9422648D01*
X-1300500Y-9627352D01*
X-1268477Y-9829534D01*
X-1205220Y-10024219D01*
X-1112287Y-10206610D01*
X-1044732Y-10299590D01*
X-991971Y-10372213D01*
X-991968Y-10372215D01*
X-991966Y-10372219D01*
X-847219Y-10516966D01*
X-847215Y-10516968D01*
X-847213Y-10516971D01*
X-774590Y-10569732D01*
X-681610Y-10637287D01*
X-499219Y-10730220D01*
X-304534Y-10793477D01*
X-102352Y-10825500D01*
X-102351Y-10825500D01*
X102351Y-10825500D01*
X102352Y-10825500D01*
X304534Y-10793477D01*
X499219Y-10730220D01*
X499224Y-10730217D01*
X499228Y-10730216D01*
X543760Y-10707525D01*
X543764Y-10707523D01*
X565286Y-10696557D01*
X681610Y-10637287D01*
X702770Y-10621913D01*
X847213Y-10516971D01*
X847215Y-10516968D01*
X847219Y-10516966D01*
X991966Y-10372219D01*
X991968Y-10372215D01*
X991971Y-10372213D01*
X1044732Y-10299590D01*
X1112287Y-10206610D01*
X1205220Y-10024219D01*
X1268477Y-9829534D01*
X1300500Y-9627352D01*
X1300500Y-9422648D01*
X17749500Y-9422648D01*
X17749500Y-9627351D01*
X17781522Y-9829534D01*
X17844781Y-10024223D01*
X17937715Y-10206613D01*
X18058028Y-10372213D01*
X18202786Y-10516971D01*
X18357749Y-10629556D01*
X18368390Y-10637287D01*
X18484607Y-10696503D01*
X18550776Y-10730218D01*
X18550778Y-10730218D01*
X18550781Y-10730220D01*
X18655137Y-10764127D01*
X18745465Y-10793477D01*
X18846557Y-10809488D01*
X18947648Y-10825500D01*
X18947649Y-10825500D01*
X19152351Y-10825500D01*
X19152352Y-10825500D01*
X19354534Y-10793477D01*
X19549219Y-10730220D01*
X19731610Y-10637287D01*
X19824590Y-10569732D01*
X19897213Y-10516971D01*
X19897215Y-10516968D01*
X19897219Y-10516966D01*
X20041966Y-10372219D01*
X20041968Y-10372215D01*
X20041971Y-10372213D01*
X20094732Y-10299590D01*
X20162287Y-10206610D01*
X20255220Y-10024219D01*
X20318477Y-9829534D01*
X20350500Y-9627352D01*
X20350500Y-9422648D01*
X20318477Y-9220466D01*
X20255220Y-9025781D01*
X20255218Y-9025778D01*
X20255218Y-9025776D01*
X20221503Y-8959607D01*
X20162287Y-8843390D01*
X20154556Y-8832749D01*
X20041971Y-8677786D01*
X19897213Y-8533028D01*
X19731613Y-8412715D01*
X19731612Y-8412714D01*
X19731610Y-8412713D01*
X19674653Y-8383691D01*
X19549223Y-8319781D01*
X19354534Y-8256522D01*
X19179995Y-8228878D01*
X19152352Y-8224500D01*
X18947648Y-8224500D01*
X18923329Y-8228351D01*
X18745465Y-8256522D01*
X18550776Y-8319781D01*
X18368386Y-8412715D01*
X18202786Y-8533028D01*
X18058028Y-8677786D01*
X17937715Y-8843386D01*
X17844781Y-9025776D01*
X17781522Y-9220465D01*
X17749500Y-9422648D01*
X1300500Y-9422648D01*
X1268477Y-9220466D01*
X1205220Y-9025781D01*
X1205218Y-9025778D01*
X1205218Y-9025776D01*
X1171503Y-8959607D01*
X1112287Y-8843390D01*
X1104556Y-8832749D01*
X991971Y-8677786D01*
X847213Y-8533028D01*
X681613Y-8412715D01*
X681612Y-8412714D01*
X681610Y-8412713D01*
X624653Y-8383691D01*
X499223Y-8319781D01*
X304534Y-8256522D01*
X129995Y-8228878D01*
X102352Y-8224500D01*
X-102352Y-8224500D01*
X-129995Y-8228878D01*
X-304534Y-8256522D01*
X-499223Y-8319781D01*
X-624653Y-8383691D01*
X-681610Y-8412713D01*
X-681612Y-8412714D01*
X-681613Y-8412715D01*
X-847213Y-8533028D01*
X-991971Y-8677786D01*
X-1104556Y-8832749D01*
X-1112287Y-8843390D01*
X-1171503Y-8959607D01*
X-1205218Y-9025776D01*
X-1205218Y-9025778D01*
X-1205220Y-9025781D01*
X-1268477Y-9220466D01*
X-1300500Y-9422648D01*
X-17749500Y-9422648D01*
X-17781522Y-9220465D01*
X-17844781Y-9025776D01*
X-17937715Y-8843386D01*
X-18058028Y-8677786D01*
X-18202786Y-8533028D01*
X-18368386Y-8412715D01*
X-18550776Y-8319781D01*
X-18745465Y-8256522D01*
X-18923329Y-8228351D01*
X-18947648Y-8224500D01*
X-19152352Y-8224500D01*
X-19179995Y-8228878D01*
X-19354534Y-8256522D01*
X-19549223Y-8319781D01*
X-19674653Y-8383691D01*
X-19731610Y-8412713D01*
X-19731612Y-8412714D01*
X-19731613Y-8412715D01*
X-19897213Y-8533028D01*
X-20041971Y-8677786D01*
X-20154556Y-8832749D01*
X-20162287Y-8843390D01*
X-20221503Y-8959607D01*
X-20255218Y-9025776D01*
X-20255218Y-9025778D01*
X-20255220Y-9025781D01*
X-20318477Y-9220466D01*
X-20350500Y-9422648D01*
X-37499500Y-9422648D01*
X-37499500Y4531611D01*
X-27770500Y4531611D01*
X-27770500Y4358389D01*
X-27743402Y4187299D01*
X-27689873Y4022555D01*
X-27611232Y3868212D01*
X-27509414Y3728072D01*
X-27386928Y3605586D01*
X-27246788Y3503768D01*
X-27092445Y3425127D01*
X-26927701Y3371598D01*
X-26927699Y3371597D01*
X-26927698Y3371597D01*
X-26796271Y3350781D01*
X-26756611Y3344500D01*
X-26756610Y3344500D01*
X-26583390Y3344500D01*
X-26583389Y3344500D01*
X-26543728Y3350781D01*
X-26412302Y3371597D01*
X-26247552Y3425128D01*
X-26093211Y3503768D01*
X-26013256Y3561859D01*
X-25953072Y3605586D01*
X-25953070Y3605588D01*
X-25953069Y3605588D01*
X-25830588Y3728069D01*
X-25830588Y3728070D01*
X-25830586Y3728072D01*
X-25786859Y3788256D01*
X-25728768Y3868211D01*
X-25650128Y4022552D01*
X-25596597Y4187302D01*
X-25569500Y4358389D01*
X-25569500Y4531605D01*
X-25569500Y4531611D01*
X-25576715Y4577168D01*
X-25576715Y4577170D01*
X-25579144Y4592506D01*
X-23840500Y4592506D01*
X-23840500Y4297494D01*
X-23801993Y4005007D01*
X-23725639Y3720048D01*
X-23725635Y3720039D01*
X-23725635Y3720038D01*
X-23612745Y3447499D01*
X-23612741Y3447489D01*
X-23465238Y3192006D01*
X-23285647Y2957959D01*
X-23285641Y2957952D01*
X-23077047Y2749358D01*
X-23077040Y2749352D01*
X-22842993Y2569761D01*
X-22587510Y2422258D01*
X-22587500Y2422254D01*
X-22314961Y2309364D01*
X-22314954Y2309362D01*
X-22314952Y2309361D01*
X-22029993Y2233007D01*
X-21981113Y2226571D01*
X-21737513Y2194500D01*
X-21737506Y2194500D01*
X-21442486Y2194500D01*
X-21150015Y2233006D01*
X-21150007Y2233007D01*
X-20865048Y2309361D01*
X-20865038Y2309364D01*
X-20592499Y2422254D01*
X-20592489Y2422258D01*
X-20337006Y2569761D01*
X-20102959Y2749352D01*
X-20102952Y2749358D01*
X-19894358Y2957952D01*
X-19894352Y2957959D01*
X-19714761Y3192006D01*
X-19567258Y3447489D01*
X-19567254Y3447499D01*
X-19454364Y3720038D01*
X-19454361Y3720048D01*
X-19378008Y4005004D01*
X-19378006Y4005015D01*
X-19339500Y4297486D01*
X-19339500Y4531611D01*
X-17610500Y4531611D01*
X-17610500Y4358389D01*
X-17583402Y4187299D01*
X-17529873Y4022555D01*
X-17451232Y3868212D01*
X-17349414Y3728072D01*
X-17226928Y3605586D01*
X-17086788Y3503768D01*
X-16932445Y3425127D01*
X-16767701Y3371598D01*
X-16767699Y3371597D01*
X-16767698Y3371597D01*
X-16636271Y3350781D01*
X-16596611Y3344500D01*
X-16596610Y3344500D01*
X-16423390Y3344500D01*
X-16423389Y3344500D01*
X-16383728Y3350781D01*
X-16252302Y3371597D01*
X-16087552Y3425128D01*
X-15933211Y3503768D01*
X-15853256Y3561859D01*
X-15793072Y3605586D01*
X-15793070Y3605588D01*
X-15793069Y3605588D01*
X-15670588Y3728069D01*
X-15670588Y3728070D01*
X-15670586Y3728072D01*
X-15626859Y3788256D01*
X-15568768Y3868211D01*
X-15490128Y4022552D01*
X-15436597Y4187302D01*
X-15409500Y4358389D01*
X-15409500Y4531610D01*
X-15409500Y4531611D01*
X-8720500Y4531611D01*
X-8720500Y4358389D01*
X-8693402Y4187299D01*
X-8639873Y4022555D01*
X-8561232Y3868212D01*
X-8459414Y3728072D01*
X-8336928Y3605586D01*
X-8196788Y3503768D01*
X-8042445Y3425127D01*
X-7877701Y3371598D01*
X-7877699Y3371597D01*
X-7877698Y3371597D01*
X-7746271Y3350781D01*
X-7706611Y3344500D01*
X-7706610Y3344500D01*
X-7533390Y3344500D01*
X-7533389Y3344500D01*
X-7493728Y3350781D01*
X-7362302Y3371597D01*
X-7197552Y3425128D01*
X-7043211Y3503768D01*
X-6963256Y3561859D01*
X-6903072Y3605586D01*
X-6903070Y3605588D01*
X-6903069Y3605588D01*
X-6780588Y3728069D01*
X-6780588Y3728070D01*
X-6780586Y3728072D01*
X-6736859Y3788256D01*
X-6678768Y3868211D01*
X-6600128Y4022552D01*
X-6546597Y4187302D01*
X-6519500Y4358389D01*
X-6519500Y4531605D01*
X-6519500Y4531611D01*
X-6526715Y4577168D01*
X-6526715Y4577170D01*
X-6529144Y4592506D01*
X-4790500Y4592506D01*
X-4790500Y4297494D01*
X-4751993Y4005007D01*
X-4675639Y3720048D01*
X-4675635Y3720039D01*
X-4675635Y3720038D01*
X-4562745Y3447499D01*
X-4562741Y3447489D01*
X-4415238Y3192006D01*
X-4235647Y2957959D01*
X-4235641Y2957952D01*
X-4027047Y2749358D01*
X-4027040Y2749352D01*
X-3792993Y2569761D01*
X-3537510Y2422258D01*
X-3537500Y2422254D01*
X-3264961Y2309364D01*
X-3264954Y2309362D01*
X-3264952Y2309361D01*
X-2979993Y2233007D01*
X-2931113Y2226571D01*
X-2687513Y2194500D01*
X-2687506Y2194500D01*
X-2392486Y2194500D01*
X-2100015Y2233006D01*
X-2100007Y2233007D01*
X-1815048Y2309361D01*
X-1815038Y2309364D01*
X-1542499Y2422254D01*
X-1542489Y2422258D01*
X-1287006Y2569761D01*
X-1052959Y2749352D01*
X-1052952Y2749358D01*
X-844358Y2957952D01*
X-844352Y2957959D01*
X-664761Y3192006D01*
X-517258Y3447489D01*
X-517254Y3447499D01*
X-404364Y3720038D01*
X-404361Y3720048D01*
X-328008Y4005004D01*
X-328006Y4005015D01*
X-289500Y4297486D01*
X-289500Y4531610D01*
X1439500Y4531610D01*
X1439500Y4358389D01*
X1466597Y4187302D01*
X1520128Y4022552D01*
X1598768Y3868211D01*
X1656859Y3788256D01*
X1700586Y3728072D01*
X1700588Y3728070D01*
X1700588Y3728069D01*
X1823069Y3605588D01*
X1963211Y3503768D01*
X2117552Y3425128D01*
X2282302Y3371597D01*
X2282301Y3371597D01*
X2421192Y3349599D01*
X2453389Y3344500D01*
X2453390Y3344500D01*
X2626610Y3344500D01*
X2626611Y3344500D01*
X2678239Y3352677D01*
X2797697Y3371597D01*
X2797699Y3371597D01*
X2797701Y3371598D01*
X2962445Y3425127D01*
X3116788Y3503768D01*
X3256928Y3605586D01*
X3379414Y3728072D01*
X3481232Y3868212D01*
X3559873Y4022555D01*
X3613402Y4187299D01*
X3640500Y4358389D01*
X3640500Y4531610D01*
X10329500Y4531610D01*
X10329500Y4358389D01*
X10356597Y4187302D01*
X10410128Y4022552D01*
X10488768Y3868211D01*
X10546859Y3788256D01*
X10590586Y3728072D01*
X10590588Y3728070D01*
X10590588Y3728069D01*
X10713069Y3605588D01*
X10853211Y3503768D01*
X11007552Y3425128D01*
X11172302Y3371597D01*
X11172301Y3371597D01*
X11311192Y3349599D01*
X11343389Y3344500D01*
X11343390Y3344500D01*
X11516610Y3344500D01*
X11516611Y3344500D01*
X11568239Y3352677D01*
X11687697Y3371597D01*
X11687699Y3371597D01*
X11687701Y3371598D01*
X11852445Y3425127D01*
X12006788Y3503768D01*
X12146928Y3605586D01*
X12269414Y3728072D01*
X12371232Y3868212D01*
X12449873Y4022555D01*
X12503402Y4187299D01*
X12530500Y4358389D01*
X12530500Y4531611D01*
X12520854Y4592513D01*
X14259500Y4592513D01*
X14259500Y4297486D01*
X14298006Y4005015D01*
X14298008Y4005004D01*
X14374361Y3720048D01*
X14374364Y3720038D01*
X14487254Y3447499D01*
X14487258Y3447489D01*
X14634761Y3192006D01*
X14814352Y2957959D01*
X14814358Y2957952D01*
X15022952Y2749358D01*
X15022959Y2749352D01*
X15257006Y2569761D01*
X15512489Y2422258D01*
X15512499Y2422254D01*
X15785038Y2309364D01*
X15785048Y2309361D01*
X16070007Y2233007D01*
X16070015Y2233006D01*
X16362486Y2194500D01*
X16362494Y2194500D01*
X16657513Y2194500D01*
X16901113Y2226571D01*
X16949993Y2233007D01*
X17234952Y2309361D01*
X17234954Y2309362D01*
X17234961Y2309364D01*
X17507500Y2422254D01*
X17507510Y2422258D01*
X17762993Y2569761D01*
X17997040Y2749352D01*
X17997047Y2749358D01*
X18205641Y2957952D01*
X18205647Y2957959D01*
X18385238Y3192006D01*
X18532741Y3447489D01*
X18532745Y3447499D01*
X18645635Y3720038D01*
X18645635Y3720039D01*
X18645639Y3720048D01*
X18721993Y4005007D01*
X18760500Y4297494D01*
X18760500Y4531610D01*
X20489500Y4531610D01*
X20489500Y4358389D01*
X20516597Y4187302D01*
X20570128Y4022552D01*
X20648768Y3868211D01*
X20706859Y3788256D01*
X20750586Y3728072D01*
X20750588Y3728070D01*
X20750588Y3728069D01*
X20873069Y3605588D01*
X21013211Y3503768D01*
X21167552Y3425128D01*
X21332302Y3371597D01*
X21332301Y3371597D01*
X21471192Y3349599D01*
X21503389Y3344500D01*
X21503390Y3344500D01*
X21676610Y3344500D01*
X21676611Y3344500D01*
X21728239Y3352677D01*
X21847697Y3371597D01*
X21847699Y3371597D01*
X21847701Y3371598D01*
X22012445Y3425127D01*
X22166788Y3503768D01*
X22306928Y3605586D01*
X22429414Y3728072D01*
X22531232Y3868212D01*
X22609873Y4022555D01*
X22663402Y4187299D01*
X22690500Y4358389D01*
X22690500Y4531611D01*
X22663402Y4702701D01*
X22609873Y4867445D01*
X22531232Y5021788D01*
X22429414Y5161928D01*
X22306928Y5284414D01*
X22166788Y5386232D01*
X22012445Y5464873D01*
X21847701Y5518402D01*
X21676611Y5545500D01*
X21503389Y5545500D01*
X21332299Y5518402D01*
X21167555Y5464873D01*
X21013212Y5386232D01*
X20873072Y5284414D01*
X20750586Y5161928D01*
X20648768Y5021788D01*
X20570128Y4867447D01*
X20516597Y4702697D01*
X20489500Y4531610D01*
X18760500Y4531610D01*
X18760500Y4592506D01*
X18721993Y4884993D01*
X18645639Y5169952D01*
X18532743Y5442507D01*
X18385238Y5697994D01*
X18205646Y5932042D01*
X17997042Y6140646D01*
X17762994Y6320238D01*
X17507507Y6467743D01*
X17234952Y6580639D01*
X16949993Y6656993D01*
X16657506Y6695500D01*
X16362494Y6695500D01*
X16070007Y6656993D01*
X15785048Y6580639D01*
X15512493Y6467743D01*
X15512490Y6467741D01*
X15512489Y6467741D01*
X15257006Y6320238D01*
X15022959Y6140647D01*
X15022952Y6140641D01*
X14814358Y5932047D01*
X14814352Y5932040D01*
X14634761Y5697993D01*
X14487258Y5442510D01*
X14487254Y5442500D01*
X14374364Y5169961D01*
X14374362Y5169954D01*
X14374361Y5169952D01*
X14298007Y4884993D01*
X14298006Y4884984D01*
X14259500Y4592513D01*
X12520854Y4592513D01*
X12503402Y4702701D01*
X12449873Y4867445D01*
X12371232Y5021788D01*
X12269414Y5161928D01*
X12216881Y5214460D01*
X12183397Y5275781D01*
X12188381Y5345473D01*
X12230252Y5401406D01*
X12295716Y5425824D01*
X12323961Y5424613D01*
X12574072Y5385000D01*
X12825928Y5385000D01*
X13074669Y5424397D01*
X13314184Y5502219D01*
X13538583Y5616557D01*
X13640697Y5690748D01*
X13640698Y5690748D01*
X13024024Y6307421D01*
X13055258Y6320359D01*
X13178097Y6402437D01*
X13282563Y6506903D01*
X13364641Y6629742D01*
X13377577Y6660973D01*
X13994250Y6044300D01*
X13994250Y6044301D01*
X14068442Y6146416D01*
X14182780Y6370815D01*
X14260602Y6610330D01*
X14300000Y6859071D01*
X14300000Y7110928D01*
X14260602Y7359669D01*
X14182780Y7599184D01*
X14068446Y7823575D01*
X14068442Y7823581D01*
X13994250Y7925697D01*
X13994250Y7925698D01*
X13377578Y7309025D01*
X13364641Y7340258D01*
X13282563Y7463097D01*
X13178097Y7567563D01*
X13055258Y7649641D01*
X13024025Y7662578D01*
X13640698Y8279250D01*
X13538581Y8353442D01*
X13538575Y8353446D01*
X13314184Y8467780D01*
X13074669Y8545602D01*
X12825928Y8585000D01*
X12574072Y8585000D01*
X12325330Y8545602D01*
X12085815Y8467780D01*
X11861416Y8353442D01*
X11759301Y8279250D01*
X11759300Y8279250D01*
X12375974Y7662577D01*
X12344742Y7649641D01*
X12221903Y7567563D01*
X12117437Y7463097D01*
X12035359Y7340258D01*
X12022421Y7309024D01*
X11405748Y7925698D01*
X11405748Y7925697D01*
X11331557Y7823583D01*
X11217219Y7599184D01*
X11139397Y7359669D01*
X11100000Y7110928D01*
X11100000Y6859071D01*
X11139397Y6610330D01*
X11217219Y6370815D01*
X11331559Y6146413D01*
X11405747Y6044301D01*
X11405748Y6044300D01*
X12022421Y6660974D01*
X12035359Y6629742D01*
X12117437Y6506903D01*
X12221903Y6402437D01*
X12344742Y6320359D01*
X12375975Y6307421D01*
X11759300Y5690748D01*
X11761598Y5661550D01*
X11747233Y5593172D01*
X11698181Y5543416D01*
X11630016Y5528078D01*
X11618589Y5529348D01*
X11516611Y5545500D01*
X11343389Y5545500D01*
X11172299Y5518402D01*
X11007555Y5464873D01*
X10853212Y5386232D01*
X10713072Y5284414D01*
X10590586Y5161928D01*
X10488768Y5021788D01*
X10410128Y4867447D01*
X10356597Y4702697D01*
X10329500Y4531610D01*
X3640500Y4531610D01*
X3640500Y4531611D01*
X3613402Y4702701D01*
X3559873Y4867445D01*
X3481232Y5021788D01*
X3379414Y5161928D01*
X3256928Y5284414D01*
X3116788Y5386232D01*
X2962445Y5464873D01*
X2797701Y5518402D01*
X2626611Y5545500D01*
X2453389Y5545500D01*
X2282299Y5518402D01*
X2117555Y5464873D01*
X1963212Y5386232D01*
X1823072Y5284414D01*
X1700586Y5161928D01*
X1598768Y5021788D01*
X1520128Y4867447D01*
X1466597Y4702697D01*
X1439500Y4531610D01*
X-289500Y4531610D01*
X-289500Y4592513D01*
X-328006Y4884984D01*
X-328007Y4884993D01*
X-404361Y5169952D01*
X-404362Y5169954D01*
X-404364Y5169961D01*
X-517254Y5442500D01*
X-517258Y5442510D01*
X-664761Y5697993D01*
X-844352Y5932040D01*
X-844358Y5932047D01*
X-1052952Y6140641D01*
X-1052959Y6140647D01*
X-1287006Y6320238D01*
X-1542489Y6467741D01*
X-1542490Y6467741D01*
X-1542493Y6467743D01*
X-1815048Y6580639D01*
X-2100007Y6656993D01*
X-2392494Y6695500D01*
X-2687506Y6695500D01*
X-2979993Y6656993D01*
X-3264952Y6580639D01*
X-3537507Y6467743D01*
X-3792994Y6320238D01*
X-4027042Y6140646D01*
X-4235646Y5932042D01*
X-4415238Y5697994D01*
X-4562743Y5442507D01*
X-4675639Y5169952D01*
X-4751993Y4884993D01*
X-4790500Y4592506D01*
X-6529144Y4592506D01*
X-6546597Y4702697D01*
X-6600128Y4867447D01*
X-6678768Y5021788D01*
X-6780586Y5161928D01*
X-6833117Y5214459D01*
X-6866602Y5275782D01*
X-6861618Y5345474D01*
X-6819746Y5401407D01*
X-6754282Y5425824D01*
X-6726038Y5424613D01*
X-6475928Y5385000D01*
X-6224072Y5385000D01*
X-5975330Y5424397D01*
X-5735815Y5502219D01*
X-5511413Y5616559D01*
X-5409301Y5690747D01*
X-5409300Y5690748D01*
X-6025975Y6307421D01*
X-5994742Y6320359D01*
X-5871903Y6402437D01*
X-5767437Y6506903D01*
X-5685359Y6629742D01*
X-5672421Y6660974D01*
X-5055748Y6044300D01*
X-5055747Y6044301D01*
X-4981559Y6146413D01*
X-4867219Y6370815D01*
X-4789397Y6610330D01*
X-4750000Y6859071D01*
X-4750000Y7110928D01*
X-4789397Y7359669D01*
X-4867219Y7599184D01*
X-4981557Y7823583D01*
X-5055748Y7925697D01*
X-5055748Y7925698D01*
X-5672421Y7309024D01*
X-5685359Y7340258D01*
X-5767437Y7463097D01*
X-5871903Y7567563D01*
X-5994742Y7649641D01*
X-6025974Y7662577D01*
X-5409300Y8279250D01*
X-5511416Y8353442D01*
X-5735815Y8467780D01*
X-5975330Y8545602D01*
X-6224072Y8585000D01*
X-6475928Y8585000D01*
X-6724669Y8545602D01*
X-6964184Y8467780D01*
X-7188575Y8353446D01*
X-7188581Y8353442D01*
X-7290697Y8279250D01*
X-7290698Y8279250D01*
X-6674025Y7662578D01*
X-6705258Y7649641D01*
X-6828097Y7567563D01*
X-6932563Y7463097D01*
X-7014641Y7340258D01*
X-7027578Y7309025D01*
X-7644250Y7925698D01*
X-7644250Y7925697D01*
X-7718442Y7823581D01*
X-7718446Y7823575D01*
X-7832780Y7599184D01*
X-7910602Y7359669D01*
X-7950000Y7110928D01*
X-7950000Y6859071D01*
X-7910602Y6610330D01*
X-7832780Y6370815D01*
X-7718442Y6146416D01*
X-7644250Y6044301D01*
X-7644250Y6044300D01*
X-7027577Y6660973D01*
X-7014641Y6629742D01*
X-6932563Y6506903D01*
X-6828097Y6402437D01*
X-6705258Y6320359D01*
X-6674024Y6307421D01*
X-7290697Y5690749D01*
X-7288400Y5661551D01*
X-7302764Y5593174D01*
X-7351816Y5543417D01*
X-7419981Y5528078D01*
X-7431416Y5529349D01*
X-7533389Y5545500D01*
X-7706611Y5545500D01*
X-7877701Y5518402D01*
X-8042445Y5464873D01*
X-8196788Y5386232D01*
X-8336928Y5284414D01*
X-8459414Y5161928D01*
X-8561232Y5021788D01*
X-8639873Y4867445D01*
X-8693402Y4702701D01*
X-8720500Y4531611D01*
X-15409500Y4531611D01*
X-15436597Y4702697D01*
X-15490128Y4867447D01*
X-15568768Y5021788D01*
X-15670586Y5161928D01*
X-15793072Y5284414D01*
X-15933212Y5386232D01*
X-16087555Y5464873D01*
X-16252299Y5518402D01*
X-16423389Y5545500D01*
X-16596611Y5545500D01*
X-16767701Y5518402D01*
X-16932445Y5464873D01*
X-17086788Y5386232D01*
X-17226928Y5284414D01*
X-17349414Y5161928D01*
X-17451232Y5021788D01*
X-17529873Y4867445D01*
X-17583402Y4702701D01*
X-17610500Y4531611D01*
X-19339500Y4531611D01*
X-19339500Y4592513D01*
X-19378006Y4884984D01*
X-19378007Y4884993D01*
X-19454361Y5169952D01*
X-19454362Y5169954D01*
X-19454364Y5169961D01*
X-19567254Y5442500D01*
X-19567258Y5442510D01*
X-19714761Y5697993D01*
X-19894352Y5932040D01*
X-19894358Y5932047D01*
X-20102952Y6140641D01*
X-20102959Y6140647D01*
X-20337006Y6320238D01*
X-20592489Y6467741D01*
X-20592490Y6467741D01*
X-20592493Y6467743D01*
X-20865048Y6580639D01*
X-21150007Y6656993D01*
X-21442494Y6695500D01*
X-21737506Y6695500D01*
X-22029993Y6656993D01*
X-22314952Y6580639D01*
X-22587507Y6467743D01*
X-22842994Y6320238D01*
X-23077042Y6140646D01*
X-23285646Y5932042D01*
X-23465238Y5697994D01*
X-23612743Y5442507D01*
X-23725639Y5169952D01*
X-23801993Y4884993D01*
X-23840500Y4592506D01*
X-25579144Y4592506D01*
X-25596597Y4702697D01*
X-25650128Y4867447D01*
X-25728768Y5021788D01*
X-25830586Y5161928D01*
X-25883117Y5214459D01*
X-25916602Y5275782D01*
X-25911618Y5345474D01*
X-25869746Y5401407D01*
X-25804282Y5425824D01*
X-25776038Y5424613D01*
X-25525928Y5385000D01*
X-25274072Y5385000D01*
X-25025330Y5424397D01*
X-24785815Y5502219D01*
X-24561413Y5616559D01*
X-24459301Y5690747D01*
X-24459300Y5690748D01*
X-25075975Y6307421D01*
X-25044742Y6320359D01*
X-24921903Y6402437D01*
X-24817437Y6506903D01*
X-24735359Y6629742D01*
X-24722421Y6660974D01*
X-24105748Y6044300D01*
X-24105747Y6044301D01*
X-24031559Y6146413D01*
X-23917219Y6370815D01*
X-23839397Y6610330D01*
X-23800000Y6859071D01*
X-23800000Y7110928D01*
X-23839397Y7359669D01*
X-23917219Y7599184D01*
X-24031557Y7823583D01*
X-24105748Y7925697D01*
X-24105748Y7925698D01*
X-24722421Y7309024D01*
X-24735359Y7340258D01*
X-24817437Y7463097D01*
X-24921903Y7567563D01*
X-25044742Y7649641D01*
X-25075974Y7662577D01*
X-24459300Y8279250D01*
X-24561416Y8353442D01*
X-24785815Y8467780D01*
X-25025330Y8545602D01*
X-25274072Y8585000D01*
X-25525928Y8585000D01*
X-25774669Y8545602D01*
X-26014184Y8467780D01*
X-26238575Y8353446D01*
X-26238581Y8353442D01*
X-26340697Y8279250D01*
X-26340698Y8279250D01*
X-25724025Y7662578D01*
X-25755258Y7649641D01*
X-25878097Y7567563D01*
X-25982563Y7463097D01*
X-26064641Y7340258D01*
X-26077577Y7309025D01*
X-26694250Y7925698D01*
X-26694250Y7925697D01*
X-26768442Y7823581D01*
X-26768446Y7823575D01*
X-26882780Y7599184D01*
X-26960602Y7359669D01*
X-27000000Y7110928D01*
X-27000000Y6859071D01*
X-26960602Y6610330D01*
X-26882780Y6370815D01*
X-26768442Y6146416D01*
X-26694250Y6044301D01*
X-26694250Y6044300D01*
X-26077577Y6660973D01*
X-26064641Y6629742D01*
X-25982563Y6506903D01*
X-25878097Y6402437D01*
X-25755258Y6320359D01*
X-25724024Y6307421D01*
X-26340697Y5690749D01*
X-26338400Y5661551D01*
X-26352764Y5593174D01*
X-26401816Y5543417D01*
X-26469981Y5528078D01*
X-26481416Y5529349D01*
X-26583389Y5545500D01*
X-26756611Y5545500D01*
X-26927701Y5518402D01*
X-27092445Y5464873D01*
X-27246788Y5386232D01*
X-27386928Y5284414D01*
X-27509414Y5161928D01*
X-27611232Y5021788D01*
X-27689873Y4867445D01*
X-27743402Y4702701D01*
X-27770500Y4531611D01*
X-37499500Y4531611D01*
X-37499500Y9627351D01*
X-20350500Y9627351D01*
X-20350500Y9422648D01*
X-20318477Y9220465D01*
X-20255218Y9025776D01*
X-20221503Y8959607D01*
X-20162287Y8843390D01*
X-20162284Y8843386D01*
X-20041971Y8677786D01*
X-19897213Y8533028D01*
X-19731613Y8412715D01*
X-19731610Y8412713D01*
X-19674653Y8383691D01*
X-19549223Y8319781D01*
X-19354534Y8256522D01*
X-19179995Y8228878D01*
X-19152352Y8224500D01*
X-19152351Y8224500D01*
X-18947649Y8224500D01*
X-18947648Y8224500D01*
X-18923329Y8228351D01*
X-18745465Y8256522D01*
X-18550771Y8319783D01*
X-18506241Y8342473D01*
X-18506238Y8342476D01*
X-18368385Y8412715D01*
X-18202786Y8533028D01*
X-18058028Y8677786D01*
X-17937715Y8843386D01*
X-17844781Y9025776D01*
X-17781522Y9220465D01*
X-17749500Y9422648D01*
X-17749500Y9627351D01*
X-1300500Y9627351D01*
X-1300500Y9422648D01*
X-1268477Y9220465D01*
X-1205218Y9025776D01*
X-1171503Y8959607D01*
X-1112287Y8843390D01*
X-1112284Y8843386D01*
X-991971Y8677786D01*
X-847213Y8533028D01*
X-681613Y8412715D01*
X-681610Y8412713D01*
X-624653Y8383691D01*
X-499223Y8319781D01*
X-304534Y8256522D01*
X-129995Y8228878D01*
X-102352Y8224500D01*
X-102351Y8224500D01*
X102351Y8224500D01*
X102352Y8224500D01*
X129995Y8228878D01*
X304534Y8256522D01*
X499228Y8319783D01*
X543758Y8342473D01*
X543762Y8342476D01*
X681614Y8412715D01*
X847213Y8533028D01*
X991971Y8677786D01*
X1112284Y8843386D01*
X1112287Y8843390D01*
X1171503Y8959607D01*
X1205218Y9025776D01*
X1268477Y9220465D01*
X1300500Y9422648D01*
X1300500Y9627351D01*
X17749500Y9627351D01*
X17749500Y9422648D01*
X17781522Y9220465D01*
X17844781Y9025776D01*
X17937715Y8843386D01*
X18058028Y8677786D01*
X18202786Y8533028D01*
X18368386Y8412715D01*
X18550776Y8319781D01*
X18745465Y8256522D01*
X18923329Y8228351D01*
X18947648Y8224500D01*
X18947649Y8224500D01*
X19152351Y8224500D01*
X19152352Y8224500D01*
X19179995Y8228878D01*
X19354534Y8256522D01*
X19549223Y8319781D01*
X19674653Y8383691D01*
X19731610Y8412713D01*
X19731613Y8412715D01*
X19897213Y8533028D01*
X20041971Y8677786D01*
X20162284Y8843386D01*
X20162287Y8843390D01*
X20221503Y8959607D01*
X20255218Y9025776D01*
X20318477Y9220465D01*
X20350500Y9422648D01*
X20350500Y9627351D01*
X20318477Y9829534D01*
X20255220Y10024219D01*
X20162287Y10206610D01*
X20094732Y10299590D01*
X20041971Y10372213D01*
X20041968Y10372215D01*
X20041966Y10372219D01*
X19897219Y10516966D01*
X19897215Y10516968D01*
X19897213Y10516971D01*
X19824590Y10569732D01*
X19731610Y10637287D01*
X19549219Y10730220D01*
X19354534Y10793477D01*
X19152352Y10825500D01*
X18947648Y10825500D01*
X18846557Y10809488D01*
X18745465Y10793477D01*
X18655137Y10764127D01*
X18550781Y10730220D01*
X18550778Y10730218D01*
X18550776Y10730218D01*
X18484607Y10696503D01*
X18368390Y10637287D01*
X18368386Y10637284D01*
X18202786Y10516971D01*
X18058028Y10372213D01*
X17937715Y10206613D01*
X17844781Y10024223D01*
X17781522Y9829534D01*
X17749500Y9627351D01*
X1300500Y9627351D01*
X1268477Y9829534D01*
X1205220Y10024219D01*
X1112287Y10206610D01*
X1044732Y10299590D01*
X991971Y10372213D01*
X991968Y10372215D01*
X991966Y10372219D01*
X847219Y10516966D01*
X847215Y10516968D01*
X847213Y10516971D01*
X774590Y10569732D01*
X681610Y10637287D01*
X499219Y10730220D01*
X304534Y10793477D01*
X102352Y10825500D01*
X-102352Y10825500D01*
X-304534Y10793477D01*
X-499219Y10730220D01*
X-681610Y10637287D01*
X-774590Y10569732D01*
X-847213Y10516971D01*
X-847215Y10516968D01*
X-847219Y10516966D01*
X-991966Y10372219D01*
X-991968Y10372215D01*
X-991971Y10372213D01*
X-1044732Y10299590D01*
X-1112287Y10206610D01*
X-1205220Y10024219D01*
X-1268477Y9829534D01*
X-1300500Y9627351D01*
X-17749500Y9627351D01*
X-17781522Y9829534D01*
X-17844781Y10024223D01*
X-17937715Y10206613D01*
X-18058028Y10372213D01*
X-18202786Y10516971D01*
X-18368386Y10637284D01*
X-18368390Y10637287D01*
X-18484607Y10696503D01*
X-18550776Y10730218D01*
X-18550778Y10730218D01*
X-18550781Y10730220D01*
X-18655137Y10764127D01*
X-18745465Y10793477D01*
X-18846557Y10809488D01*
X-18947648Y10825500D01*
X-19152352Y10825500D01*
X-19354534Y10793477D01*
X-19549219Y10730220D01*
X-19731610Y10637287D01*
X-19824590Y10569732D01*
X-19897213Y10516971D01*
X-19897215Y10516968D01*
X-19897219Y10516966D01*
X-20041966Y10372219D01*
X-20041968Y10372215D01*
X-20041971Y10372213D01*
X-20094732Y10299590D01*
X-20162287Y10206610D01*
X-20255220Y10024219D01*
X-20318477Y9829534D01*
X-20350500Y9627351D01*
X-37499500Y9627351D01*
X-37499500Y18919752D01*
X5699500Y18919752D01*
X5699500Y16880247D01*
X5711131Y16821770D01*
X5711132Y16821769D01*
X5755447Y16755447D01*
X5821769Y16711132D01*
X5821770Y16711131D01*
X5880247Y16699500D01*
X5880252Y16699500D01*
X9119752Y16699500D01*
X9178229Y16711131D01*
X9178230Y16711132D01*
X9244552Y16755447D01*
X9288867Y16821769D01*
X9288868Y16821770D01*
X9300499Y16880247D01*
X9300500Y16880249D01*
X9300500Y18919750D01*
X9300499Y18919752D01*
X9288868Y18978229D01*
X9288867Y18978230D01*
X9288867Y18978231D01*
X9244552Y19044552D01*
X9178231Y19088867D01*
X9178229Y19088867D01*
X9178229Y19088868D01*
X9134568Y19097552D01*
X9119751Y19100499D01*
X9119751Y19100500D01*
X9119748Y19100500D01*
X5880252Y19100500D01*
X5880249Y19100500D01*
X5880247Y19100499D01*
X5821770Y19088868D01*
X5821769Y19088867D01*
X5755447Y19044552D01*
X5711132Y18978230D01*
X5711131Y18978229D01*
X5699500Y18919752D01*
X-37499500Y18919752D01*
X-37499500Y23618052D01*
X-1500000Y23618052D01*
X-1500000Y23381947D01*
X-1463065Y23148752D01*
X-1390102Y22924197D01*
X-1282914Y22713828D01*
X-1222658Y22630894D01*
X-1222658Y22630893D01*
X-482962Y23370590D01*
X-465925Y23307007D01*
X-400099Y23192993D01*
X-307007Y23099901D01*
X-192993Y23034075D01*
X-129409Y23017037D01*
X-869105Y22277340D01*
X-869104Y22277338D01*
X-786174Y22217087D01*
X-720223Y22183483D01*
X-669427Y22135508D01*
X-652632Y22067688D01*
X-675169Y22001553D01*
X-703632Y21972680D01*
X-782073Y21915690D01*
X-915690Y21782073D01*
X-1026760Y21629199D01*
X-1112547Y21460832D01*
X-1170940Y21281118D01*
X-1200500Y21094486D01*
X-1200500Y20905513D01*
X-1170940Y20718881D01*
X-1112545Y20539163D01*
X-1067290Y20450347D01*
X-1026760Y20370801D01*
X-915690Y20217927D01*
X-782073Y20084310D01*
X-629199Y19973240D01*
X-460836Y19887454D01*
X-281118Y19829059D01*
X-94486Y19799500D01*
X-94481Y19799500D01*
X94486Y19799500D01*
X281118Y19829059D01*
X460836Y19887454D01*
X629199Y19973240D01*
X782073Y20084310D01*
X915690Y20217927D01*
X1026760Y20370801D01*
X1067290Y20450347D01*
X1112545Y20539163D01*
X1170940Y20718881D01*
X1200500Y20905513D01*
X1200500Y21094486D01*
X13299500Y21094486D01*
X13299500Y20905513D01*
X13329059Y20718881D01*
X13387454Y20539163D01*
X13473240Y20370800D01*
X13536610Y20283579D01*
X13584310Y20217927D01*
X13584312Y20217925D01*
X13584312Y20217924D01*
X13717924Y20084312D01*
X13870800Y19973240D01*
X14039163Y19887454D01*
X14218881Y19829059D01*
X14405514Y19799500D01*
X14405519Y19799500D01*
X14594486Y19799500D01*
X14781118Y19829059D01*
X14960836Y19887454D01*
X15129199Y19973240D01*
X15282073Y20084310D01*
X15415690Y20217927D01*
X15526760Y20370801D01*
X15567290Y20450347D01*
X15612545Y20539163D01*
X15670940Y20718881D01*
X15700500Y20905513D01*
X15700500Y21094486D01*
X15670940Y21281118D01*
X15612547Y21460832D01*
X15526760Y21629199D01*
X15415690Y21782073D01*
X15282073Y21915690D01*
X15129199Y22026760D01*
X14960832Y22112547D01*
X14781118Y22170940D01*
X14594486Y22200500D01*
X14594481Y22200500D01*
X14405519Y22200500D01*
X14405514Y22200500D01*
X14218881Y22170940D01*
X14183421Y22159418D01*
X14039168Y22112547D01*
X14039165Y22112545D01*
X14039163Y22112545D01*
X13951127Y22067688D01*
X13870801Y22026760D01*
X13717927Y21915690D01*
X13584310Y21782073D01*
X13473240Y21629199D01*
X13387454Y21460836D01*
X13329059Y21281118D01*
X13299500Y21094486D01*
X1200500Y21094486D01*
X1170940Y21281118D01*
X1112547Y21460832D01*
X1026760Y21629199D01*
X915690Y21782073D01*
X782073Y21915690D01*
X703632Y21972680D01*
X660967Y22028010D01*
X654988Y22097623D01*
X687594Y22159418D01*
X720223Y22183483D01*
X786174Y22217087D01*
X869104Y22277338D01*
X869105Y22277340D01*
X129409Y23017037D01*
X192993Y23034075D01*
X307007Y23099901D01*
X400099Y23192993D01*
X465925Y23307007D01*
X482962Y23370590D01*
X1222658Y22630893D01*
X1222658Y22630894D01*
X1282914Y22713828D01*
X1390102Y22924197D01*
X1463065Y23148752D01*
X1500000Y23381947D01*
X1500000Y23618052D01*
X1463065Y23851247D01*
X1390102Y24075802D01*
X1282918Y24286163D01*
X1282914Y24286169D01*
X1222658Y24369104D01*
X1222658Y24369105D01*
X482962Y23629408D01*
X465925Y23692993D01*
X400099Y23807007D01*
X307007Y23900099D01*
X192993Y23965925D01*
X129408Y23982962D01*
X909527Y24763080D01*
X913021Y24759585D01*
X936943Y24783875D01*
X997200Y24799500D01*
X1019752Y24799500D01*
X1078229Y24811131D01*
X1078230Y24811132D01*
X1144553Y24855448D01*
X1169973Y24893491D01*
X1188867Y24921769D01*
X1188868Y24921770D01*
X1200499Y24980247D01*
X1200500Y24980249D01*
X1200500Y26118052D01*
X13000000Y26118052D01*
X13000000Y25881947D01*
X13036934Y25648752D01*
X13109897Y25424197D01*
X13217084Y25213830D01*
X13277340Y25130894D01*
X14017037Y25870591D01*
X14034075Y25807007D01*
X14099901Y25692993D01*
X14192993Y25599901D01*
X14307007Y25534075D01*
X14370591Y25517037D01*
X13630894Y24777340D01*
X13713830Y24717084D01*
X13924197Y24609897D01*
X14148752Y24536934D01*
X14148751Y24536934D01*
X14381948Y24500000D01*
X14618052Y24500000D01*
X14851247Y24536934D01*
X15075802Y24609897D01*
X15286174Y24717087D01*
X15369104Y24777338D01*
X15369105Y24777340D01*
X14629409Y25517037D01*
X14692993Y25534075D01*
X14807007Y25599901D01*
X14900099Y25692993D01*
X14965925Y25807007D01*
X14982962Y25870590D01*
X15722658Y25130893D01*
X15722658Y25130894D01*
X15782914Y25213828D01*
X15890102Y25424197D01*
X15963065Y25648752D01*
X16000000Y25881947D01*
X16000000Y26118052D01*
X15963065Y26351247D01*
X15890102Y26575802D01*
X15782918Y26786163D01*
X15782914Y26786169D01*
X15722658Y26869104D01*
X15722658Y26869105D01*
X14982962Y26129409D01*
X14965925Y26192993D01*
X14900099Y26307007D01*
X14807007Y26400099D01*
X14692993Y26465925D01*
X14629408Y26482962D01*
X15369105Y27222658D01*
X15286169Y27282914D01*
X15286163Y27282918D01*
X15075802Y27390102D01*
X14851247Y27463065D01*
X14851248Y27463065D01*
X14618052Y27500000D01*
X14381948Y27500000D01*
X14148752Y27463065D01*
X13924197Y27390102D01*
X13713828Y27282914D01*
X13630894Y27222658D01*
X13630893Y27222658D01*
X14370590Y26482962D01*
X14307007Y26465925D01*
X14192993Y26400099D01*
X14099901Y26307007D01*
X14034075Y26192993D01*
X14017037Y26129408D01*
X13277340Y26869105D01*
X13277338Y26869104D01*
X13217087Y26786174D01*
X13109897Y26575802D01*
X13036934Y26351247D01*
X13000000Y26118052D01*
X1200500Y26118052D01*
X1200500Y27019750D01*
X1200499Y27019752D01*
X1188868Y27078229D01*
X1188867Y27078230D01*
X1188867Y27078231D01*
X1144552Y27144552D01*
X1078231Y27188867D01*
X1078229Y27188867D01*
X1078229Y27188868D01*
X1034568Y27197552D01*
X1019751Y27200499D01*
X1019751Y27200500D01*
X1019748Y27200500D01*
X-1019748Y27200500D01*
X-1019751Y27200500D01*
X-1019751Y27200499D01*
X-1034568Y27197552D01*
X-1078229Y27188868D01*
X-1078229Y27188867D01*
X-1078231Y27188867D01*
X-1144552Y27144552D01*
X-1188867Y27078231D01*
X-1188867Y27078230D01*
X-1188868Y27078229D01*
X-1200499Y27019752D01*
X-1200500Y27019750D01*
X-1200500Y24980249D01*
X-1200499Y24980247D01*
X-1188868Y24921770D01*
X-1188867Y24921769D01*
X-1144552Y24855447D01*
X-1078230Y24811132D01*
X-1078229Y24811131D01*
X-1019752Y24799500D01*
X-997200Y24799500D01*
X-930161Y24779815D01*
X-912812Y24759794D01*
X-909527Y24763080D01*
X-129408Y23982962D01*
X-192993Y23965925D01*
X-307007Y23900099D01*
X-400099Y23807007D01*
X-465925Y23692993D01*
X-482962Y23629408D01*
X-1222658Y24369105D01*
X-1222658Y24369104D01*
X-1282914Y24286169D01*
X-1282918Y24286163D01*
X-1390102Y24075802D01*
X-1463065Y23851247D01*
X-1500000Y23618052D01*
X-37499500Y23618052D01*
X-37499500Y31106287D01*
X-32350500Y31106287D01*
X-32350500Y30893713D01*
X-32317246Y30683757D01*
X-32251557Y30481588D01*
X-32180477Y30342086D01*
X-32155048Y30292179D01*
X-32030109Y30120213D01*
X-31879786Y29969890D01*
X-31707820Y29844951D01*
X-31707816Y29844949D01*
X-31518412Y29748443D01*
X-31316243Y29682754D01*
X-31316241Y29682753D01*
X-31316240Y29682753D01*
X-31154957Y29657208D01*
X-31106287Y29649500D01*
X-31106286Y29649500D01*
X-30893714Y29649500D01*
X-30893713Y29649500D01*
X-30845042Y29657208D01*
X-30683760Y29682753D01*
X-30481585Y29748444D01*
X-30292179Y29844951D01*
X-30120213Y29969890D01*
X-29969896Y30120207D01*
X-29949817Y30147844D01*
X5400000Y30147844D01*
X5400000Y29350000D01*
X6141759Y29350000D01*
X6128822Y29318767D01*
X6100000Y29173869D01*
X6100000Y29026131D01*
X6128822Y28881233D01*
X6141759Y28850000D01*
X5400000Y28850000D01*
X5400000Y28052155D01*
X5406401Y27992627D01*
X5406403Y27992620D01*
X5456645Y27857913D01*
X5456649Y27857906D01*
X5542809Y27742812D01*
X5542812Y27742809D01*
X5657906Y27656649D01*
X5657913Y27656645D01*
X5792620Y27606403D01*
X5792627Y27606401D01*
X5852155Y27600000D01*
X7250000Y27600000D01*
X7250000Y28350000D01*
X7750000Y28350000D01*
X7750000Y27600000D01*
X9147844Y27600000D01*
X9207372Y27606401D01*
X9207379Y27606403D01*
X9342086Y27656645D01*
X9342093Y27656649D01*
X9457187Y27742809D01*
X9457190Y27742812D01*
X9543350Y27857906D01*
X9543354Y27857913D01*
X9593596Y27992620D01*
X9593598Y27992627D01*
X9599999Y28052155D01*
X9600000Y28052172D01*
X9600000Y28850000D01*
X8858241Y28850000D01*
X8871178Y28881233D01*
X8900000Y29026131D01*
X8900000Y29173869D01*
X8871178Y29318767D01*
X8858241Y29350000D01*
X9600000Y29350000D01*
X9600000Y30147827D01*
X9599999Y30147844D01*
X9593598Y30207372D01*
X9593596Y30207379D01*
X9543354Y30342086D01*
X9543350Y30342093D01*
X9457190Y30457187D01*
X9457187Y30457190D01*
X9342093Y30543350D01*
X9342086Y30543354D01*
X9207379Y30593596D01*
X9207372Y30593598D01*
X9147844Y30599999D01*
X9147828Y30600000D01*
X7750000Y30600000D01*
X7750000Y29850000D01*
X7250000Y29850000D01*
X7250000Y30600000D01*
X5852172Y30600000D01*
X5852155Y30599999D01*
X5792627Y30593598D01*
X5792620Y30593596D01*
X5657913Y30543354D01*
X5657906Y30543350D01*
X5542812Y30457190D01*
X5542809Y30457187D01*
X5456649Y30342093D01*
X5456645Y30342086D01*
X5406403Y30207379D01*
X5406401Y30207372D01*
X5400000Y30147844D01*
X-29949817Y30147844D01*
X-29894463Y30224034D01*
X-29894460Y30224035D01*
X-29844951Y30292180D01*
X-29748444Y30481585D01*
X-29682753Y30683760D01*
X-29649500Y30893713D01*
X-29649500Y31106286D01*
X29649500Y31106286D01*
X29649500Y30893713D01*
X29682753Y30683760D01*
X29748444Y30481585D01*
X29844951Y30292179D01*
X29969890Y30120213D01*
X30120213Y29969890D01*
X30292179Y29844951D01*
X30481585Y29748444D01*
X30683760Y29682753D01*
X30683759Y29682753D01*
X30854202Y29655757D01*
X30893713Y29649500D01*
X30893714Y29649500D01*
X31106286Y29649500D01*
X31106287Y29649500D01*
X31169644Y29659534D01*
X31316239Y29682753D01*
X31316241Y29682753D01*
X31316243Y29682754D01*
X31518412Y29748443D01*
X31707816Y29844949D01*
X31707820Y29844951D01*
X31879786Y29969890D01*
X32030109Y30120213D01*
X32155048Y30292179D01*
X32180477Y30342086D01*
X32251557Y30481588D01*
X32317246Y30683757D01*
X32350500Y30893713D01*
X32350500Y31106287D01*
X32317246Y31316243D01*
X32251557Y31518412D01*
X32155051Y31707816D01*
X32139086Y31729789D01*
X32030109Y31879786D01*
X32030106Y31879788D01*
X32030104Y31879792D01*
X31879792Y32030104D01*
X31879788Y32030106D01*
X31879786Y32030109D01*
X31707820Y32155048D01*
X31707816Y32155051D01*
X31518412Y32251557D01*
X31316243Y32317246D01*
X31106287Y32350500D01*
X30893713Y32350500D01*
X30683757Y32317246D01*
X30481588Y32251557D01*
X30292184Y32155051D01*
X30292181Y32155049D01*
X30292179Y32155048D01*
X30120213Y32030109D01*
X29969890Y31879786D01*
X29844951Y31707820D01*
X29748444Y31518414D01*
X29682753Y31316239D01*
X29649500Y31106286D01*
X-29649500Y31106286D01*
X-29682753Y31316239D01*
X-29748444Y31518414D01*
X-29844951Y31707820D01*
X-29969890Y31879786D01*
X-30120213Y32030109D01*
X-30292179Y32155048D01*
X-30292181Y32155049D01*
X-30292184Y32155051D01*
X-30481588Y32251557D01*
X-30683757Y32317246D01*
X-30893713Y32350500D01*
X-31106287Y32350500D01*
X-31316243Y32317246D01*
X-31518412Y32251557D01*
X-31707816Y32155051D01*
X-31707820Y32155048D01*
X-31879786Y32030109D01*
X-31879788Y32030106D01*
X-31879792Y32030104D01*
X-32030104Y31879792D01*
X-32030106Y31879788D01*
X-32030109Y31879786D01*
X-32139086Y31729789D01*
X-32155051Y31707816D01*
X-32251557Y31518412D01*
X-32317246Y31316243D01*
X-32350500Y31106287D01*
X-37499500Y31106287D01*
X-37499500Y33375500D01*
X-37479815Y33442539D01*
X-37427011Y33488294D01*
X-37375500Y33499500D01*
X-34934108Y33499500D01*
X-34806812Y33533608D01*
X-34692686Y33599500D01*
X-34692683Y33599502D01*
X-34599502Y33692683D01*
X-34599500Y33692686D01*
X-34533608Y33806812D01*
X-34499500Y33934108D01*
X-34499500Y36375500D01*
X-34479815Y36442539D01*
X-34427011Y36488294D01*
X-34375500Y36499500D01*
X34375500Y36499500D01*
X34442539Y36479815D01*
G37*
%TD.AperFunction*%
%TD*%
M02*
