%TF.GenerationSoftware,KiCad,Pcbnew,10.0.3*%
%TF.CreationDate,2026-06-03T20:05:35+02:00*%
%TF.ProjectId,hexpad,68657870-6164-42e6-9b69-6361645f7063,rev?*%
%TF.SameCoordinates,Original*%
%TF.FileFunction,Soldermask,Top*%
%TF.FilePolarity,Negative*%
%FSLAX46Y46*%
G04 Gerber Fmt 4.6, Leading zero omitted, Abs format (unit mm)*
G04 Created by KiCad (PCBNEW 10.0.3) date 2026-06-03 20:05:35*
%MOMM*%
%LPD*%
G01*
G04 APERTURE LIST*
%ADD10C,1.700000*%
%ADD11C,4.000000*%
%ADD12C,2.200000*%
%ADD13R,2.000000X2.000000*%
%ADD14C,2.000000*%
%ADD15R,3.200000X2.000000*%
%ADD16C,1.524000*%
G04 APERTURE END LIST*
D10*
%TO.C,SW2*%
X-7620000Y-14605000D03*
D11*
X-2540000Y-14605000D03*
D10*
X2540000Y-14605000D03*
D12*
X0Y-9525000D03*
X-6350000Y-12065000D03*
%TD*%
%TO.C,H3*%
X31000000Y-31000000D03*
%TD*%
D10*
%TO.C,SW3*%
X11430000Y-14605000D03*
D11*
X16510000Y-14605000D03*
D10*
X21590000Y-14605000D03*
D12*
X19050000Y-9525000D03*
X12700000Y-12065000D03*
%TD*%
D13*
%TO.C,ENC1*%
X0Y26000000D03*
D14*
X0Y21000000D03*
X0Y23500000D03*
D15*
X7500000Y29100000D03*
X7500000Y17900000D03*
D14*
X14500000Y21000000D03*
X14500000Y26000000D03*
%TD*%
D10*
%TO.C,SW4*%
X-26670000Y4445000D03*
D11*
X-21590000Y4445000D03*
D10*
X-16510000Y4445000D03*
D12*
X-19050000Y9525000D03*
X-25400000Y6985000D03*
%TD*%
D10*
%TO.C,SW1*%
X-26670000Y-14605000D03*
D11*
X-21590000Y-14605000D03*
D10*
X-16510000Y-14605000D03*
D12*
X-19050000Y-9525000D03*
X-25400000Y-12065000D03*
%TD*%
%TO.C,H4*%
X-31000000Y-31000000D03*
%TD*%
D10*
%TO.C,SW5*%
X-7620000Y4445000D03*
D11*
X-2540000Y4445000D03*
D10*
X2540000Y4445000D03*
D12*
X0Y9525000D03*
X-6350000Y6985000D03*
%TD*%
D10*
%TO.C,SW6*%
X11430000Y4445000D03*
D11*
X16510000Y4445000D03*
D10*
X21590000Y4445000D03*
D12*
X19050000Y9525000D03*
X12700000Y6985000D03*
%TD*%
%TO.C,H1*%
X31000000Y31000000D03*
%TD*%
%TO.C,H2*%
X-31000000Y31000000D03*
%TD*%
D16*
%TO.C,U1*%
X-2380000Y-19380000D03*
X-2380000Y-21920000D03*
X-2380000Y-24460000D03*
X-2380000Y-27000000D03*
X-2380000Y-29540000D03*
X-2380000Y-32080000D03*
X-2380000Y-34620000D03*
X-17620000Y-34620000D03*
X-17620000Y-32080000D03*
X-17620000Y-29540000D03*
X-17620000Y-27000000D03*
X-17620000Y-24460000D03*
X-17620000Y-21920000D03*
X-17620000Y-19380000D03*
%TD*%
M02*
